<?xml version="1.0" standalone="no"?>
<!DOCTYPE svg PUBLIC "-//W3C//DTD SVG 20010904//EN"
 "http://www.w3.org/TR/2001/REC-SVG-20010904/DTD/svg10.dtd">
<svg version="1.0" xmlns="http://www.w3.org/2000/svg"
 width="1280.000000pt" height="1280.000000pt" viewBox="0 0 1280.000000 1280.000000"
 preserveAspectRatio="xMidYMid meet">
<metadata>
Created by potrace 1.11, written by Peter Selinger 2001-2013
</metadata>
<g transform="translate(0.000000,1280.000000) scale(0.100000,-0.100000)"
fill="#000000" stroke="none">
<path d="M6300 11169 c-52 -5 -138 -14 -190 -20 -52 -7 -109 -12 -127 -11 -18
1 -35 -3 -38 -8 -3 -6 -35 -10 -70 -10 -35 0 -67 -4 -70 -10 -3 -5 -28 -10
-55 -10 -55 0 -309 -55 -324 -70 -5 -5 -24 -10 -41 -10 -17 0 -35 -4 -41 -10
-5 -5 -24 -10 -42 -12 -19 -1 -36 -6 -38 -10 -3 -4 -16 -8 -29 -8 -13 0 -27
-4 -30 -10 -3 -5 -17 -10 -30 -10 -13 0 -27 -4 -30 -10 -3 -5 -17 -10 -30 -10
-13 0 -27 -4 -30 -10 -3 -5 -17 -10 -30 -10 -13 0 -27 -4 -30 -10 -3 -5 -15
-10 -26 -10 -10 0 -19 -4 -19 -10 0 -5 -11 -10 -25 -10 -14 0 -45 -9 -67 -20
-23 -11 -48 -20 -55 -20 -7 0 -13 -4 -13 -10 0 -5 -11 -10 -24 -10 -14 0 -28
-4 -31 -10 -3 -5 -15 -10 -26 -10 -10 0 -19 -4 -19 -10 0 -5 -9 -10 -20 -10
-11 0 -20 -4 -20 -10 0 -5 -8 -10 -18 -10 -10 0 -81 -32 -158 -71 -76 -39
-149 -77 -161 -83 -13 -6 -23 -14 -23 -18 0 -5 -9 -8 -20 -8 -11 0 -20 -4 -20
-10 0 -5 -9 -10 -20 -10 -11 0 -20 -4 -20 -8 0 -5 -12 -15 -27 -23 -16 -8 -37
-22 -47 -31 -11 -10 -26 -18 -33 -18 -7 0 -13 -4 -13 -10 0 -5 -9 -10 -20 -10
-11 0 -20 -4 -20 -8 0 -5 -12 -15 -27 -23 -16 -8 -37 -22 -47 -31 -11 -10 -24
-18 -28 -18 -5 0 -23 -13 -41 -30 -18 -16 -38 -30 -44 -30 -7 0 -13 -4 -13 -8
0 -5 -12 -15 -27 -23 -16 -8 -41 -26 -58 -41 -16 -16 -35 -28 -42 -28 -6 0
-13 -4 -15 -8 -1 -5 -25 -26 -52 -46 -90 -68 -148 -120 -299 -266 -221 -214
-399 -411 -446 -494 -13 -22 -27 -42 -32 -44 -5 -2 -9 -9 -9 -15 0 -6 -11 -22
-24 -36 -37 -39 -134 -172 -148 -203 -7 -16 -16 -28 -20 -28 -5 0 -8 -6 -8
-13 0 -7 -8 -22 -17 -33 -10 -10 -24 -31 -32 -46 -8 -16 -18 -28 -23 -28 -4 0
-8 -5 -8 -12 0 -6 -7 -19 -16 -29 -19 -21 -52 -77 -60 -101 -4 -10 -10 -18
-15 -18 -5 0 -9 -9 -9 -19 0 -11 -3 -21 -7 -23 -10 -4 -42 -57 -50 -80 -3 -10
-9 -18 -14 -18 -5 0 -9 -6 -9 -13 0 -18 -24 -67 -32 -67 -5 0 -8 -9 -8 -20 0
-11 -4 -20 -10 -20 -5 0 -10 -9 -10 -20 0 -11 -4 -20 -10 -20 -5 0 -10 -6 -10
-13 0 -18 -24 -67 -32 -67 -5 0 -8 -9 -8 -20 0 -11 -4 -20 -10 -20 -5 0 -10
-9 -10 -20 0 -11 -4 -20 -10 -20 -5 0 -10 -9 -10 -19 0 -11 -4 -23 -10 -26 -6
-3 -10 -17 -10 -31 0 -13 -4 -24 -10 -24 -5 0 -10 -9 -10 -20 0 -11 -4 -20
-10 -20 -5 0 -10 -9 -10 -19 0 -11 -4 -23 -10 -26 -5 -3 -10 -17 -10 -31 0
-13 -4 -24 -10 -24 -5 0 -10 -9 -10 -19 0 -11 -4 -23 -10 -26 -5 -3 -10 -17
-10 -30 0 -13 -4 -27 -10 -30 -5 -3 -10 -17 -10 -30 0 -13 -4 -27 -10 -30 -5
-3 -10 -17 -10 -31 0 -13 -4 -24 -8 -24 -9 0 -40 -106 -49 -168 -3 -18 -9 -35
-14 -38 -5 -3 -9 -15 -9 -26 0 -23 -17 -81 -31 -110 -5 -10 -9 -31 -9 -47 0
-17 -4 -32 -8 -35 -5 -3 -14 -38 -21 -78 -7 -40 -16 -91 -21 -113 -49 -229
-66 -403 -74 -780 -5 -231 30 -695 54 -719 6 -6 10 -31 10 -57 0 -56 36 -256
50 -281 6 -10 10 -31 10 -47 0 -17 5 -33 10 -36 6 -3 10 -21 10 -40 0 -41 60
-279 71 -283 5 -2 9 -14 9 -27 0 -13 5 -27 10 -30 6 -3 10 -21 10 -40 0 -19 5
-37 10 -40 6 -3 10 -17 10 -30 0 -13 5 -27 10 -30 6 -3 10 -17 10 -30 0 -13 5
-27 10 -30 6 -3 10 -13 10 -21 0 -8 9 -34 20 -56 11 -23 20 -50 20 -59 0 -10
5 -21 10 -24 6 -3 10 -15 10 -26 0 -10 5 -19 10 -19 6 0 10 -9 10 -20 0 -11 9
-35 20 -55 11 -20 20 -42 20 -50 0 -8 5 -15 10 -15 6 0 10 -9 10 -20 0 -11 5
-20 10 -20 6 0 10 -9 10 -20 0 -11 5 -20 10 -20 6 0 10 -9 10 -20 0 -11 5 -20
10 -20 6 0 10 -10 10 -22 0 -13 9 -34 20 -48 11 -14 20 -31 20 -37 0 -7 5 -13
10 -13 6 0 10 -9 10 -20 0 -11 5 -20 10 -20 6 0 10 -9 10 -20 0 -11 5 -20 10
-20 6 0 10 -9 10 -20 0 -11 5 -20 10 -20 6 0 10 -9 10 -20 0 -11 5 -20 10 -20
6 0 10 -7 10 -15 0 -9 9 -25 20 -37 11 -12 20 -28 20 -35 0 -7 4 -13 9 -13 5
0 11 -8 14 -17 7 -23 37 -72 60 -97 9 -11 17 -26 17 -33 0 -7 4 -13 8 -13 5 0
15 -12 23 -28 8 -15 22 -36 31 -46 10 -11 18 -24 18 -28 0 -12 80 -126 141
-203 26 -33 86 -98 133 -145 47 -46 86 -89 86 -94 0 -13 267 -282 315 -318 22
-16 61 -49 87 -74 26 -24 50 -44 54 -44 4 0 28 -19 54 -42 63 -56 127 -108
170 -138 19 -13 37 -28 38 -32 2 -4 9 -8 15 -8 7 0 26 -14 44 -30 18 -17 39
-30 47 -30 9 0 16 -4 16 -10 0 -5 6 -10 13 -10 6 0 26 -14 44 -30 18 -17 36
-30 41 -30 4 0 17 -8 28 -18 11 -9 29 -22 40 -28 10 -6 30 -17 44 -25 14 -8
27 -16 30 -19 5 -5 27 -18 75 -44 11 -6 22 -13 25 -16 9 -9 65 -41 102 -58 21
-9 38 -20 38 -24 0 -5 9 -8 20 -8 11 0 20 -4 20 -10 0 -5 9 -10 20 -10 11 0
20 -4 20 -10 0 -5 9 -10 20 -10 11 0 20 -4 20 -10 0 -5 9 -10 20 -10 11 0 20
-4 20 -10 0 -5 9 -10 20 -10 11 0 20 -4 20 -10 0 -5 9 -10 20 -10 11 0 20 -4
20 -10 0 -5 6 -10 13 -10 18 0 67 -24 67 -32 0 -5 9 -8 19 -8 11 0 23 -4 26
-10 3 -5 17 -10 31 -10 13 0 24 -4 24 -10 0 -5 9 -10 20 -10 11 0 20 -4 20
-10 0 -5 6 -10 13 -10 7 0 32 -9 55 -20 22 -11 48 -20 56 -20 8 0 18 -4 21
-10 3 -5 17 -10 31 -10 13 0 24 -3 24 -8 0 -9 72 -32 99 -32 11 0 23 -5 26
-10 3 -6 17 -10 30 -10 13 0 27 -4 30 -10 3 -5 17 -10 30 -10 13 0 26 -4 30
-9 3 -5 31 -15 63 -21 31 -7 66 -16 77 -20 37 -15 102 -30 127 -30 13 0 28 -4
33 -8 18 -16 166 -45 375 -73 36 -4 101 -14 145 -21 54 -8 217 -12 495 -12
402 -1 421 0 600 27 102 15 197 32 211 38 14 6 41 11 60 11 19 0 39 4 44 8 6
4 35 10 66 13 64 6 186 34 211 47 10 6 27 10 37 10 11 0 23 4 26 10 3 5 21 10
40 10 19 0 37 5 40 10 3 6 21 10 40 10 19 0 37 5 40 10 3 6 15 10 26 10 27 0
99 23 99 32 0 5 9 8 20 8 28 0 100 23 100 32 0 5 11 8 24 8 14 0 28 5 31 10 3
6 17 10 30 10 13 0 27 4 30 10 3 5 17 10 30 10 13 0 27 5 30 10 3 6 15 10 26
10 10 0 19 5 19 10 0 6 9 10 20 10 11 0 35 9 55 20 20 11 42 20 50 20 8 0 15
5 15 10 0 6 9 10 20 10 11 0 20 5 20 10 0 6 8 10 18 10 10 0 56 20 102 45 47
25 93 48 103 52 9 3 17 9 17 14 0 5 9 9 20 9 11 0 20 5 20 10 0 6 9 10 20 10
11 0 20 5 20 10 0 6 7 10 15 10 9 0 25 9 37 20 12 11 28 20 35 20 7 0 13 5 13
10 0 6 7 10 15 10 9 0 25 9 37 20 12 11 28 20 35 20 7 0 13 5 13 10 0 6 7 10
15 10 8 0 23 6 32 14 52 43 114 86 123 86 6 0 10 4 10 8 0 5 12 15 28 23 15 8
41 26 57 41 17 16 35 28 42 28 6 0 13 4 15 8 2 4 19 19 38 32 19 13 55 40 79
60 77 60 630 612 678 675 26 33 50 62 55 63 4 2 8 9 8 15 0 7 14 26 30 44 17
18 30 36 30 41 0 5 10 17 21 28 12 10 44 53 72 94 28 41 53 77 56 80 3 3 12
17 20 33 8 15 18 27 23 27 4 0 8 5 8 11 0 5 18 37 40 69 22 32 40 64 40 69 0
6 5 11 10 11 6 0 10 6 10 13 0 7 9 23 20 35 11 12 20 28 20 37 0 8 3 15 8 15
4 0 12 10 18 23 30 60 60 112 67 115 4 2 7 12 7 23 0 10 5 19 10 19 6 0 10 9
10 20 0 11 5 20 10 20 6 0 10 9 10 20 0 11 5 20 10 20 6 0 10 9 10 20 0 11 5
20 10 20 6 0 10 9 10 20 0 11 5 20 10 20 6 0 10 9 10 20 0 11 5 20 10 20 6 0
10 9 10 20 0 11 5 20 10 20 6 0 10 9 10 20 0 11 5 20 10 20 6 0 10 7 10 15 0
8 4 23 9 33 5 9 18 36 30 58 11 23 21 55 21 71 0 16 8 38 18 49 17 19 42 80
42 103 0 7 9 25 20 41 20 27 48 116 57 178 3 17 8 32 12 32 4 0 13 24 20 53 7
28 16 61 21 72 10 22 39 151 47 205 2 19 8 44 13 55 13 30 19 65 26 141 3 38
10 74 14 79 4 6 10 35 13 65 2 30 10 84 18 120 10 48 13 173 14 475 0 346 -3
433 -19 555 -10 80 -23 150 -27 156 -5 6 -10 39 -11 73 -1 34 -5 64 -10 67 -4
3 -8 28 -8 56 0 29 -4 65 -9 82 -5 17 -15 74 -21 126 -13 100 -29 143 -58 158
-9 5 -80 12 -157 16 -77 3 -212 10 -300 16 -88 5 -216 9 -283 10 -115 0 -124
1 -129 20 -3 11 -9 20 -14 20 -5 0 -9 9 -9 20 0 28 -23 100 -32 100 -5 0 -8 9
-8 20 0 11 -9 35 -20 55 -11 20 -20 42 -20 50 0 8 -9 30 -20 50 -11 20 -20 42
-20 50 0 8 -4 15 -10 15 -5 0 -10 9 -10 20 0 11 -4 20 -10 20 -5 0 -10 9 -10
20 0 11 -4 20 -10 20 -5 0 -10 10 -10 23 0 12 -9 33 -20 47 -11 14 -20 31 -20
38 0 6 -4 12 -10 12 -5 0 -10 9 -10 20 0 11 -4 20 -10 20 -5 0 -10 9 -10 20 0
11 -4 20 -10 20 -5 0 -10 9 -10 20 0 11 -4 20 -10 20 -5 0 -10 5 -10 11 0 5
-18 37 -40 69 -22 32 -40 64 -40 69 0 6 -3 11 -8 11 -4 0 -13 12 -20 28 -14
31 -111 164 -148 203 -13 14 -24 28 -24 33 0 4 -13 21 -30 39 -16 18 -30 37
-30 44 0 6 -4 13 -8 15 -4 2 -23 23 -42 48 -45 58 -292 310 -305 310 -5 0 -41
31 -80 70 -38 38 -74 70 -80 70 -5 0 -32 22 -60 50 -27 27 -54 49 -60 50 -5 0
-24 14 -42 30 -18 17 -34 30 -37 30 -5 0 -64 42 -116 83 -8 7 -28 18 -43 26
-15 8 -27 18 -27 23 0 4 -5 8 -11 8 -5 0 -37 18 -69 40 -32 22 -63 40 -69 40
-5 0 -11 3 -13 8 -4 9 -57 41 -80 49 -10 3 -18 9 -18 14 0 5 -9 9 -20 9 -11 0
-20 5 -20 10 0 6 -9 10 -20 10 -11 0 -20 5 -20 10 0 6 -9 10 -20 10 -11 0 -20
5 -20 10 0 6 -9 10 -20 10 -11 0 -20 5 -20 10 0 6 -9 10 -20 10 -11 0 -20 5
-20 10 0 6 -6 10 -13 10 -7 0 -32 9 -55 20 -22 11 -48 20 -56 20 -8 0 -18 5
-21 10 -3 6 -17 10 -30 10 -13 0 -27 5 -30 10 -3 6 -17 10 -29 10 -47 0 -49
15 -37 213 7 100 18 232 26 292 23 182 28 317 11 338 -17 21 -202 117 -228
117 -10 0 -18 5 -18 10 0 6 -9 10 -19 10 -11 0 -23 5 -26 10 -3 6 -17 10 -30
10 -13 0 -27 5 -30 10 -3 6 -17 10 -30 10 -13 0 -27 5 -30 10 -3 6 -15 10 -26
10 -10 0 -27 4 -37 10 -42 23 -299 74 -467 92 -125 13 -797 18 -925 7z m582
-78 c5 -16 169 -16 178 -1 7 11 11 11 24 1 8 -7 23 -10 33 -7 10 3 56 -1 103
-8 l85 -14 -95 5 c-52 3 -92 2 -88 -2 6 -6 205 -17 317 -17 17 0 20 -2 11 -8
-9 -6 -1 -10 26 -13 26 -2 16 -4 -29 -5 -38 -1 -89 3 -115 10 -35 9 -47 9 -50
0 -4 -13 -64 -14 -102 -2 l-25 8 25 2 c14 2 -4 6 -40 10 -51 6 -67 4 -80 -8
-13 -14 -15 -14 -18 1 -3 15 -31 17 -311 17 -170 0 -321 2 -337 4 -16 2 -21 1
-11 -1 28 -7 19 -23 -13 -23 -18 0 -34 7 -41 18 -8 13 -22 17 -52 15 -31 -2
-37 -1 -22 6 11 4 84 6 163 3 100 -3 142 -1 142 7 0 14 317 16 322 2z m-800
-43 c-6 -6 -29 -9 -51 -6 -23 2 -41 -1 -41 -6 0 -5 26 -6 63 -1 34 4 81 8 104
9 59 2 66 16 8 16 -27 0 -46 3 -43 6 3 3 50 2 105 -2 63 -5 89 -10 73 -14 -21
-6 -16 -8 25 -14 28 -4 57 -9 65 -10 8 -2 -95 -3 -230 -3 -412 -1 -400 0 -400
-23 0 -24 -15 -26 -24 -3 -8 21 10 32 54 34 42 2 80 6 135 14 22 3 61 6 87 5
25 0 49 4 53 10 3 6 11 7 17 4 6 -4 6 -10 0 -16z m1021 -25 c-7 -2 -21 -2 -30
0 -10 3 -4 5 12 5 17 0 24 -2 18 -5z m475 -9 c2 -1 -1 -11 -7 -21 -8 -14 -11
-15 -11 -3 0 12 -3 11 -11 -3 -8 -13 -6 -21 5 -33 20 -20 20 -34 1 -34 -8 0
-15 9 -15 20 0 11 -4 20 -10 20 -5 0 -10 16 -10 35 0 34 1 35 28 29 15 -4 29
-8 30 -10z m-1834 -48 c14 -13 17 -20 9 -23 -15 -5 -17 -43 -3 -43 6 0 10 -9
10 -20 0 -13 -7 -20 -20 -20 -11 0 -20 5 -20 10 0 6 -9 10 -20 10 -16 0 -20 7
-21 38 -1 36 -1 37 -11 10 -5 -16 -14 -28 -19 -28 -13 0 -11 18 4 23 6 2 9 8
5 12 -5 5 -16 -2 -27 -13 -24 -28 -31 -28 -31 2 0 23 -3 24 -37 21 -36 -4 -36
-4 -7 4 17 4 37 11 44 16 20 12 80 24 80 15 0 -5 -6 -11 -12 -13 -7 -3 -3 -6
10 -6 18 -1 24 6 29 32 5 24 8 27 11 12 3 -11 14 -28 26 -39z m-74 35 c-22
-12 -222 -62 -227 -57 -5 5 25 14 147 45 85 22 102 24 80 12z m2074 -35 c41
-17 47 -27 14 -23 -17 1 -23 -3 -24 -18 -2 -41 -5 -45 -29 -45 -18 0 -25 5
-25 20 0 14 7 20 21 20 15 0 19 5 15 15 -3 10 1 15 12 15 15 0 15 2 2 10 -23
15 -53 12 -47 -3 3 -8 1 -20 -4 -28 -8 -12 -10 -12 -18 1 -6 8 -14 11 -18 6
-4 -5 -2 -11 5 -13 13 -5 17 -23 4 -23 -5 0 -14 12 -20 26 -9 19 -17 24 -32
19 -16 -5 -20 -2 -20 17 0 14 3 18 8 11 4 -6 25 -14 47 -17 l40 -5 -37 10
c-21 6 -38 14 -38 19 0 12 106 2 144 -14z m-2230 -31 c-4 -8 -8 -15 -10 -15
-2 0 -4 7 -4 15 0 8 4 15 10 15 5 0 7 -7 4 -15z m2404 -31 c42 -14 49 -20 35
-26 -13 -6 -10 -7 12 -6 20 2 50 -9 83 -30 68 -42 67 -48 -3 -10 -42 23 -70
30 -115 31 -32 1 -53 5 -47 9 8 5 4 8 -10 8 -12 0 -25 -4 -28 -10 -3 -5 -17
-10 -31 -10 -13 0 -24 5 -24 10 0 6 10 10 23 10 12 1 33 7 47 16 23 14 23 14
3 9 -19 -5 -23 -2 -23 16 0 16 3 19 13 12 6 -6 36 -18 65 -29z m-2550 20 c12
-4 22 -9 22 -13 0 -11 -88 -33 -108 -27 -23 8 -54 -3 -46 -15 7 -11 -26 -12
-44 -1 -12 8 14 19 93 38 17 4 17 3 5 -6 -12 -8 -8 -9 15 -4 41 9 69 26 30 18
-23 -4 -26 -3 -15 5 18 13 18 13 48 5z m68 -42 c-4 -3 -11 0 -16 8 -15 24 -11
33 6 15 9 -9 13 -19 10 -23z m-91 -12 c-11 -5 -38 -8 -60 -8 l-40 1 45 7 c64
10 78 10 55 0z m255 0 c0 -5 -4 -10 -10 -10 -5 0 -10 5 -10 10 0 6 5 10 10 10
6 0 10 -4 10 -10z m-489 -37 c12 -15 12 -16 -4 -10 -10 4 -23 7 -28 7 -6 0 -7
5 -4 10 9 15 21 12 36 -7z m2987 -63 c2 -10 1 -11 -5 -4 -4 6 -27 21 -50 33
-24 12 -43 26 -43 31 0 14 93 -43 98 -60z m-3009 49 c17 -6 31 -15 31 -20 0
-16 -52 -22 -85 -10 -38 13 -55 14 -35 1 13 -8 12 -10 -2 -10 -10 0 -18 -4
-18 -10 0 -5 -5 -10 -11 -10 -6 0 -9 6 -6 13 4 10 -2 13 -21 10 -16 -2 -6 5
23 16 27 12 52 17 55 12 3 -5 23 -12 45 -15 l40 -6 -32 12 c-62 25 -49 39 16
17z m2940 -28 c17 -11 5 -51 -15 -51 -10 0 -14 9 -12 30 2 32 5 34 27 21z
m-3167 -47 c-12 -8 -22 -22 -22 -31 0 -11 -5 -13 -17 -7 -10 4 -31 7 -48 6
-25 -1 -21 3 25 22 65 28 94 33 62 10z m3227 -36 c-1 -41 -1 -42 -11 -15 -5
15 -7 34 -4 42 10 27 16 16 15 -27z m-3201 3 c3 -8 -1 -12 -9 -9 -7 2 -15 10
-17 17 -3 8 1 12 9 9 7 -2 15 -10 17 -17z m172 -1 c0 -5 -4 -10 -10 -10 -5 0
-10 5 -10 10 0 6 5 10 10 10 6 0 10 -4 10 -10z m-340 -15 c-14 -8 -19 -14 -12
-15 6 0 12 -5 12 -10 0 -6 -12 -8 -27 -5 l-28 6 30 -17 c39 -22 16 -30 -27 -9
l-33 16 24 -21 23 -20 -33 1 c-19 0 -28 3 -21 6 14 5 16 23 3 23 -5 0 -17 -7
-25 -16 -9 -8 -22 -14 -29 -11 -12 4 138 86 158 86 6 0 -1 -6 -15 -14z m80
-20 c0 -39 -4 -42 -26 -21 -24 25 -15 52 19 55 4 1 7 -15 7 -34z m3274 -68 c4
-29 2 -64 -3 -77 -7 -18 -10 -20 -10 -7 -1 9 -5 17 -10 17 -12 0 -19 -66 -10
-109 6 -33 7 -32 9 19 1 42 4 49 9 30 9 -29 2 -92 -11 -101 -5 -3 -11 -42 -13
-85 -3 -59 -2 -71 5 -49 8 26 8 24 3 -10 -3 -22 -7 -59 -7 -82 -1 -47 -6 -51
-30 -27 -9 8 -16 13 -16 10 0 -4 -19 3 -42 15 -24 12 -72 32 -108 45 -36 12
-60 23 -53 23 6 1 23 -3 37 -9 18 -6 26 -6 26 1 0 12 135 7 147 -5 4 -3 0 -14
-9 -22 -14 -14 -19 -14 -57 6 -24 12 -47 20 -53 18 -5 -2 7 -12 28 -22 22 -11
47 -23 57 -28 37 -18 42 7 41 202 0 102 2 165 6 140 l7 -45 1 43 c1 23 7 42
12 42 6 0 10 18 10 40 0 22 5 40 10 40 6 0 10 5 10 10 0 6 -7 10 -15 10 -8 0
-15 5 -15 10 0 6 8 10 19 10 15 0 20 -10 25 -53z m-3514 -8 c0 -4 -6 -6 -12
-4 -17 6 -54 -22 -43 -32 4 -5 10 -2 12 5 8 21 42 14 40 -8 -1 -15 -8 -20 -32
-20 -55 0 -63 15 -26 49 29 27 61 33 61 10z m80 -5 c0 -3 -7 -12 -15 -20 -8
-9 -15 -13 -15 -11 0 3 -3 12 -6 21 -4 12 0 16 15 16 12 0 21 -3 21 -6z m-170
-19 c0 -2 -19 -14 -42 -26 -55 -27 -55 -28 -38 -40 11 -7 7 -8 -12 -3 -36 8
-36 -3 -1 -17 22 -8 24 -12 13 -20 -18 -11 -81 -8 -74 3 7 11 -4 10 -28 -3
-11 -6 -22 -8 -24 -6 -3 3 8 12 25 20 26 13 32 13 42 1 6 -8 19 -14 28 -14 12
0 11 4 -7 18 l-22 17 22 14 c23 15 111 61 116 61 1 0 2 -2 2 -5z m316 -9 c8
-8 14 -17 14 -20 0 -3 -31 -6 -70 -6 -40 0 -70 4 -70 10 0 6 9 10 20 10 11 0
20 5 20 10 0 15 70 12 86 -4z m-322 -22 c15 -6 24 -64 10 -64 -13 0 -34 30
-34 49 0 23 1 24 24 15z m-235 -110 c-7 -9 -33 -25 -58 -37 -35 -16 -41 -23
-26 -25 15 -3 11 -8 -19 -23 -21 -10 -43 -16 -49 -12 -6 4 -8 0 -4 -11 8 -21
-15 -32 -40 -17 -15 9 -13 10 12 5 24 -4 27 -3 15 6 -10 7 -11 13 -4 16 6 3
48 29 94 59 87 58 101 65 79 39z m15 -30 c8 -22 2 -27 -23 -19 -17 5 -18 9 -8
20 16 19 24 18 31 -1z m222 2 c8 -8 14 -17 14 -20 0 -3 -31 -6 -70 -6 -40 0
-70 4 -70 10 0 6 9 10 20 10 11 0 20 5 20 10 0 15 70 12 86 -4z m1174 -35 c0
-5 -6 -11 -12 -13 -9 -3 -8 -10 5 -22 10 -10 21 -15 25 -12 3 4 0 11 -7 16
-12 7 -12 11 2 25 15 15 17 14 22 -7 2 -13 4 -32 2 -42 -3 -29 18 -30 47 -2
32 33 36 32 36 -3 0 -25 5 -30 38 -39 36 -10 36 -10 -18 -8 -30 0 -66 -3 -80
-8 -22 -8 -23 -7 -11 8 12 14 11 16 -8 16 -16 0 -23 -8 -28 -32 -7 -32 -7 -32
-14 -8 l-7 25 -1 -27 c-1 -18 -7 -28 -16 -28 -18 0 -21 46 -2 53 9 4 8 8 -3
17 -11 9 -12 13 -2 17 14 6 16 43 2 43 -5 0 -10 9 -10 20 0 13 7 20 20 20 11
0 20 -4 20 -9z m280 -1 c0 -5 -18 -10 -40 -10 -22 0 -40 5 -40 10 0 6 18 10
40 10 22 0 40 -4 40 -10z m151 1 c-19 -3 -36 -12 -39 -18 -5 -17 8 -16 51 2
41 17 57 19 57 6 0 -4 -15 -13 -32 -19 -32 -10 -32 -10 -6 -11 15 -1 30 3 33
9 3 5 20 7 38 5 28 -4 29 -4 7 4 l-25 9 25 2 c23 2 23 3 -5 9 -16 4 105 7 270
7 261 0 283 -1 170 -8 -71 -5 -168 -7 -215 -5 -47 3 -76 1 -65 -3 17 -6 15 -8
-13 -15 -18 -4 -36 -4 -39 -1 -4 3 4 6 17 6 13 0 21 3 17 6 -8 9 -79 -5 -73
-14 2 -4 -6 -8 -17 -8 -85 -5 -174 -18 -181 -25 -15 -14 -26 -11 -26 6 0 22
-21 18 -27 -5 -6 -21 -14 -23 -50 -14 -32 9 -31 44 1 44 18 0 26 -7 29 -22 3
-18 5 -16 6 8 1 37 28 53 86 52 l40 -1 -34 -6z m1074 3 c-5 -1 -32 -6 -60 -10
-44 -6 -47 -8 -25 -15 25 -8 9 -7 -97 8 -21 3 -58 5 -83 5 -30 0 -38 2 -22 7
13 3 85 7 160 7 75 1 133 0 127 -2z m135 -10 l-35 -14 43 5 c32 4 47 1 60 -11
13 -14 14 -18 3 -22 -11 -4 -11 -6 0 -14 10 -7 5 -8 -16 -3 -16 3 -57 8 -90
11 -85 8 -81 14 11 15 l79 2 -60 8 c-36 4 -77 3 -102 -3 -23 -5 -48 -8 -55 -5
-7 3 1 6 17 8 27 2 26 3 -10 9 -34 6 -29 7 35 9 52 2 69 5 55 11 -14 6 -2 9
40 9 l60 -1 -35 -14z m360 6 c0 -5 -18 -10 -40 -10 -22 0 -40 -4 -40 -10 0 -5
-9 -10 -19 -10 -16 0 -31 -18 -31 -38 0 -4 43 -7 96 -6 89 0 94 -1 68 -14 -21
-11 -35 -12 -64 -3 -21 6 -46 11 -56 10 -11 0 4 -7 31 -15 28 -8 61 -12 74 -8
21 4 23 3 12 -10 -9 -11 -19 -12 -35 -6 -26 10 -69 18 -141 26 -52 6 -103 26
-55 21 20 -2 27 4 35 31 6 21 15 32 27 32 10 0 18 5 18 10 0 6 27 10 60 10 33
0 60 -4 60 -10z m417 -57 c-3 -10 -5 -2 -5 17 0 19 2 27 5 18 2 -10 2 -26 0
-35z m-3897 17 c0 -5 -9 -10 -20 -10 -11 0 -20 5 -20 10 0 6 9 10 20 10 11 0
20 -4 20 -10z m1560 4 c0 -3 -7 -12 -15 -20 -16 -17 -18 -14 -9 10 6 15 24 23
24 10z m-1597 -31 c-7 -2 -19 -2 -25 0 -7 3 -2 5 12 5 14 0 19 -2 13 -5z m37
-38 c0 -43 -1 -45 -30 -45 -35 0 -37 9 -10 40 11 13 20 29 20 37 0 7 5 13 10
13 6 0 10 -20 10 -45z m-150 25 c0 -5 -2 -10 -4 -10 -3 0 -8 5 -11 10 -3 6 -1
10 4 10 6 0 11 -4 11 -10z m1860 0 c-19 -4 -26 -8 -15 -9 15 -1 16 -4 7 -13
-10 -10 -15 -10 -20 -1 -4 6 -23 15 -42 21 -31 8 -27 9 35 9 54 0 62 -2 35 -7z
m1890 0 c0 -5 -5 -10 -11 -10 -5 0 -7 5 -4 10 3 6 8 10 11 10 2 0 4 -4 4 -10z
m-3762 -73 c3 -52 1 -57 -18 -57 -22 0 -27 16 -7 23 8 3 4 11 -12 26 -34 30
-48 27 -43 -8 3 -23 -2 -33 -23 -47 -22 -15 -30 -15 -47 -5 -11 7 -17 8 -14 2
4 -7 1 -8 -8 -5 -12 5 -16 -1 -16 -21 0 -23 2 -26 15 -15 12 10 15 10 15 -3 0
-28 -12 -47 -30 -47 -13 0 -17 6 -13 20 4 15 0 19 -20 17 -14 -1 -26 3 -26 8
-1 6 3 10 8 10 5 0 21 12 36 28 15 15 43 36 61 48 19 11 34 24 34 29 0 5 10
12 22 16 12 3 31 15 42 25 30 29 41 18 44 -44z m3752 53 c13 -9 13 -11 0 -20
-13 -9 -13 -11 0 -20 23 -15 -3 -12 -41 5 l-34 14 30 2 c21 1 24 3 10 6 -11 3
-24 9 -29 14 -14 12 45 11 64 -1z m-1990 -15 c0 -6 -73 -25 -78 -20 -2 2 11 8
29 14 41 11 49 12 49 6z m-215 -54 c3 -9 0 -11 -10 -7 -8 3 -15 1 -15 -4 0 -6
-8 -10 -17 -10 -15 0 -16 2 -3 10 23 15 -4 12 -65 -6 l-50 -14 50 4 c33 3 43
2 30 -4 -27 -12 -77 -12 -95 0 -10 6 -11 10 -2 10 6 0 12 5 12 10 0 6 -22 10
-49 10 -45 0 -49 -2 -54 -27 -7 -39 0 -46 42 -38 51 10 38 2 -49 -28 -80 -28
-200 -76 -265 -107 -140 -65 -197 -94 -253 -125 -35 -19 -69 -35 -75 -35 -13
0 26 25 56 36 9 3 17 10 17 15 0 5 9 9 19 9 11 0 32 11 47 25 15 14 34 25 43
25 9 1 27 7 41 15 29 17 19 20 -12 4 -11 -6 -22 -8 -25 -5 -8 8 24 36 41 36 9
0 16 5 16 10 0 6 12 10 26 10 19 0 25 -4 20 -15 -4 -12 -2 -13 14 -3 13 9 16
14 7 20 -6 4 -8 10 -4 14 3 4 13 1 22 -6 12 -10 21 -10 48 3 l32 16 -62 -2
c-35 -1 -63 2 -63 6 0 5 17 8 38 6 90 -5 122 0 122 20 0 11 6 22 13 24 9 4 8
8 -3 16 -8 6 -10 11 -4 11 6 0 14 -3 17 -7 4 -3 31 -8 59 -9 36 -2 48 0 38 7
-11 7 -6 8 15 4 17 -3 24 -2 18 1 -7 3 -13 12 -13 20 0 17 -30 19 -31 2 0 -10
-2 -10 -6 0 -7 17 -43 15 -43 -3 0 -17 -4 -18 -37 -9 -26 7 -32 44 -8 44 8 0
15 -9 15 -20 0 -11 5 -20 11 -20 6 0 8 10 5 23 -3 12 -3 16 0 9 4 -9 11 -7 26
10 16 19 21 20 29 8 8 -11 12 -12 16 -2 2 6 13 12 24 12 10 0 19 5 19 10 0 17
258 9 265 -9z m45 9 c0 -5 -7 -10 -15 -10 -8 0 -15 5 -15 10 0 6 7 10 15 10 8
0 15 -4 15 -10z m-1690 -122 c0 6 7 12 15 12 17 0 18 -2 9 -24 -7 -18 -84 -23
-84 -6 0 6 9 10 20 10 11 0 20 6 20 13 0 8 4 7 10 -3 6 -10 10 -11 10 -2z
m-155 -8 c4 -6 10 -8 15 -5 5 3 11 1 14 -3 3 -5 -12 -9 -34 -9 -22 0 -40 3
-40 8 0 5 7 5 17 2 11 -4 14 -3 9 5 -4 7 -3 12 3 12 5 0 13 -5 16 -10z m-70
-72 c1 -16 -4 -24 -11 -21 -6 2 -20 -4 -30 -14 -17 -17 -17 -17 -11 0 3 9 2
17 -3 17 -6 0 -10 -10 -10 -23 0 -24 -33 -67 -51 -67 -5 0 2 12 16 28 14 15
23 33 20 40 -5 14 55 73 70 68 6 -1 10 -14 10 -28z m1165 -38 c0 -13 -11 -13
-30 0 -12 8 -11 10 8 10 12 0 22 -4 22 -10z m-1251 -13 c-52 -36 -74 -65 -74
-97 0 -32 -3 -35 -28 -35 -16 -1 -32 -7 -36 -14 -5 -7 -12 -11 -17 -9 -5 1
-13 -7 -19 -19 -5 -13 -20 -23 -35 -25 -23 -3 -25 -7 -25 -48 l0 -45 -39 0
c-36 0 -40 -3 -42 -30 -2 -17 -4 -34 -5 -40 -3 -12 -54 -13 -65 -2 -5 4 0 5
10 1 14 -5 17 -4 12 5 -5 7 7 28 28 51 20 22 36 36 36 30 0 -5 5 -10 11 -10 6
0 9 6 6 14 -7 18 11 36 29 29 8 -3 14 -1 14 5 0 6 -4 12 -9 14 -5 2 18 29 50
60 33 32 59 53 59 48 0 -6 5 -10 11 -10 6 0 9 7 5 15 -7 19 -1 19 19 -1 9 -9
19 -13 23 -9 4 3 -1 11 -11 16 -22 13 -22 30 0 22 12 -5 15 -2 10 10 -4 10 7
28 34 52 23 20 43 34 47 31 3 -3 3 -7 1 -9z m4541 -1 c281 -88 606 -269 940
-525 160 -122 244 -197 407 -362 112 -114 165 -173 271 -304 49 -60 177 -244
234 -335 389 -624 594 -1414 575 -2217 -5 -251 -21 -391 -73 -649 -57 -288
-155 -570 -304 -877 -61 -127 -214 -395 -240 -421 -7 -7 -10 128 -10 394 0
736 -22 1171 -85 1695 -19 165 -47 392 -60 505 -14 113 -29 252 -35 310 -44
426 -234 848 -563 1250 -67 81 -263 283 -337 345 -109 93 -156 130 -254 205
-60 45 -115 84 -123 87 -16 6 -69 -24 -238 -135 -528 -347 -896 -833 -1039
-1373 -121 -458 -124 -1136 -6 -1721 124 -614 412 -1197 859 -1738 192 -232
525 -536 818 -747 103 -74 131 -98 123 -108 -17 -21 -254 -176 -365 -240 -276
-158 -628 -301 -960 -390 -79 -21 -315 -75 -327 -75 -2 0 -3 150 -3 333 0 347
-7 446 -51 732 -99 643 -338 1485 -535 1876 -54 109 -147 273 -184 324 -296
415 -592 666 -1028 875 -241 115 -454 184 -797 256 -130 28 -145 29 -415 29
-221 0 -304 -4 -395 -18 -175 -28 -247 -46 -255 -65 -39 -104 -42 -989 -4
-1317 40 -344 184 -741 397 -1095 277 -461 825 -1079 1377 -1552 120 -103 332
-273 407 -327 27 -19 46 -36 44 -38 -7 -7 -287 67 -420 111 -197 66 -304 109
-491 201 -361 178 -699 409 -995 680 -41 38 -83 76 -93 84 -34 29 -218 233
-296 330 -516 641 -831 1567 -832 2441 -1 343 42 662 133 996 l30 111 117 37
c294 92 318 95 711 106 372 10 556 4 758 -26 371 -54 887 -204 1536 -446 201
-75 273 -98 285 -91 19 12 45 78 160 418 166 486 282 779 441 1110 117 246
216 404 375 599 44 54 100 123 124 155 148 189 346 392 479 492 53 40 111 83
127 95 36 28 30 27 85 10z m-3310 0 c0 -3 -4 -8 -10 -11 -5 -3 -10 -1 -10 4 0
6 5 11 10 11 6 0 10 -2 10 -4z m-1140 -46 c0 -5 -7 -10 -15 -10 -8 0 -15 5
-15 10 0 6 7 10 15 10 8 0 15 -4 15 -10z m880 -14 c0 -2 3 -11 6 -20 4 -12 0
-16 -15 -16 -12 0 -21 -6 -22 -12 0 -10 -2 -10 -6 0 -2 6 -13 12 -24 12 -12 0
-19 7 -19 20 0 17 7 20 40 20 22 0 40 -2 40 -4z m110 -6 c-20 -13 -33 -13 -25
0 3 6 14 10 23 10 15 0 15 -2 2 -10z m30 -14 c0 -3 -13 -11 -30 -20 -33 -16
-40 -11 -12 10 16 13 42 19 42 10z m-200 -46 c0 -5 -4 -10 -10 -10 -5 0 -10 5
-10 10 0 6 5 10 10 10 6 0 10 -4 10 -10z m160 -10 c-20 -13 -33 -13 -25 0 3 6
14 10 23 10 15 0 15 -2 2 -10z m-97 -25 c-3 -8 -13 -15 -23 -15 -21 0 -42 -23
-38 -41 2 -8 -5 -13 -14 -13 -11 1 -14 -4 -11 -13 5 -13 3 -13 -17 -3 l-24 13
27 14 c15 7 27 19 27 25 0 15 31 37 53 38 11 0 15 4 11 12 -4 7 -3 8 4 4 6 -4
9 -13 5 -21z m52 15 c5 -8 -18 -26 -82 -64 -7 -4 -13 -3 -13 3 0 5 21 20 46
32 37 19 42 25 27 30 -16 7 -16 8 -1 8 9 1 20 -3 23 -9z m-115 -4 c0 -3 -4 -8
-10 -11 -5 -3 -10 -1 -10 4 0 6 5 11 10 11 6 0 10 -2 10 -4z m-1060 -26 c0 -5
-5 -10 -11 -10 -5 0 -7 5 -4 10 3 6 8 10 11 10 2 0 4 -4 4 -10z m-7 -37 c-7
-2 -19 -2 -25 0 -7 3 -2 5 12 5 14 0 19 -2 13 -5z m989 -10 c-10 -4 -5 -11 15
-25 l28 -19 -30 6 c-22 5 -26 4 -15 -4 8 -5 12 -12 10 -14 -5 -4 -81 -54 -109
-72 -9 -5 -27 -20 -41 -32 -79 -68 -125 -102 -128 -93 -2 5 -8 10 -14 10 -6 0
-8 -7 -5 -14 4 -11 1 -13 -10 -9 -12 5 -15 2 -10 -10 4 -11 2 -14 -9 -10 -10
4 -14 1 -12 -9 2 -9 -21 -37 -51 -64 -46 -42 -53 -45 -47 -24 5 14 9 34 10 46
1 17 7 20 41 20 l40 -1 0 40 0 40 41 0 c34 0 49 7 90 43 27 23 52 42 56 42 5
0 8 6 8 14 0 8 13 19 30 24 16 6 41 22 56 37 14 14 29 23 35 20 5 -3 7 7 5 24
-4 32 1 41 18 40 6 0 5 -3 -2 -6z m-104 -91 c2 -7 -4 -12 -14 -12 -9 0 -44
-27 -77 -60 -33 -34 -62 -59 -65 -56 -3 3 3 15 13 26 10 11 15 23 11 27 -4 4
-12 1 -17 -7 -9 -13 -10 -13 -6 0 2 8 12 15 23 16 49 3 54 5 54 23 0 21 47 64
64 58 5 -2 12 -9 14 -15z m-958 -42 c0 -11 -7 -20 -15 -20 -17 0 -18 2 -9 24
9 23 24 20 24 -4z m-160 -41 c0 -6 -4 -7 -10 -4 -14 9 -13 -8 2 -23 6 -6 8
-15 5 -19 -4 -4 -15 0 -23 9 -13 13 -14 19 -3 36 13 20 29 21 29 1z m-40 -38
c0 -6 -4 -13 -10 -16 -5 -3 -10 1 -10 9 0 9 5 16 10 16 6 0 10 -4 10 -9z m-50
-60 c-8 -15 -8 -21 0 -21 6 0 8 -5 4 -11 -4 -8 -9 -7 -16 2 -7 11 -11 11 -15
2 -2 -7 -9 -13 -14 -13 -5 0 4 17 19 39 27 39 43 40 22 2z m-72 -86 c0 -13 -4
-22 -9 -19 -12 7 -11 1 1 -31 9 -23 6 -32 -15 -57 -14 -16 -25 -34 -25 -39 0
-15 -27 -10 -34 7 -4 11 1 18 15 21 16 4 18 8 7 14 -10 7 -7 11 10 15 12 4 22
13 22 22 0 12 -3 13 -12 4 -13 -13 -28 -16 -28 -4 0 4 14 22 30 41 17 18 30
38 30 42 0 5 2 9 4 9 2 0 4 -11 4 -25z m939 -38 c-2 -25 -60 -90 -71 -80 -3 4
-6 28 -6 55 l0 48 39 0 c36 0 40 -3 38 -23z m-1032 -83 c-17 -35 -52 -74 -66
-74 -5 0 9 25 32 55 45 59 58 67 34 19z m950 -4 c0 -3 -8 -16 -17 -29 -19 -27
-33 -22 -33 13 -1 17 5 22 25 21 14 0 25 -2 25 -5z m-935 -49 c0 -5 -9 -11
-20 -14 -17 -4 -18 -2 -9 14 9 18 29 18 29 0z m860 -11 c0 -5 -7 -10 -15 -10
-8 0 -15 -7 -15 -15 0 -8 -4 -15 -10 -15 -5 0 -10 -5 -10 -12 0 -6 11 -1 25
12 14 13 25 20 25 15 0 -10 -143 -161 -150 -158 -3 1 -12 4 -21 8 -21 8 -52
-22 -44 -43 3 -8 0 -21 -6 -28 -16 -19 -1 -18 18 2 13 13 14 17 3 24 -11 7
-10 11 3 25 9 9 21 13 27 10 16 -10 11 -25 -6 -18 -12 5 -15 2 -11 -13 4 -12
-3 -30 -18 -49 -19 -23 -25 -26 -25 -12 0 9 -4 17 -8 17 -19 0 -4 57 22 83 30
30 83 38 72 11 -3 -8 -2 -12 4 -9 6 3 7 17 4 31 -8 30 12 57 37 49 17 -6 19 0
19 49 l0 56 40 0 c22 0 40 -4 40 -10z m25 1 c3 -5 1 -12 -5 -16 -5 -3 -10 1
-10 9 0 18 6 21 15 7z m-959 -71 c7 0 15 6 18 13 5 10 7 10 12 0 7 -15 64 -18
64 -3 0 6 14 10 30 10 23 0 30 -4 30 -20 0 -18 -7 -20 -59 -20 -38 0 -61 4
-64 13 -4 9 -7 9 -14 0 -5 -7 -17 -11 -28 -11 -15 2 -20 10 -22 32 -1 29 -1
30 9 9 6 -13 17 -23 24 -23z m-55 -13 c-10 -9 -11 -8 -5 6 3 10 9 15 12 12 3
-3 0 -11 -7 -18z m20 -39 c0 -10 2 -10 6 0 10 26 23 10 23 -28 0 -45 -24 -57
-35 -17 -4 12 -9 30 -11 40 -3 9 -1 17 5 17 6 0 11 -6 12 -12z m-65 -33 c-9
-14 -21 -25 -27 -25 -5 0 -1 10 11 22 11 12 20 26 20 32 0 5 3 6 6 3 4 -4 -1
-18 -10 -32z m-8 -55 c-26 -47 -33 -50 -34 -12 -1 15 1 21 3 14 3 -8 11 -4 25
13 28 36 30 31 6 -15z m52 -20 c0 -15 -6 -19 -25 -18 -14 1 -25 3 -25 4 0 1 3
9 6 18 9 24 44 20 44 -4z m-108 -25 c-2 -14 -8 -22 -13 -19 -5 3 -9 1 -9 -5 0
-5 5 -13 10 -16 6 -3 10 -21 10 -40 0 -37 -40 -78 -66 -68 -11 4 -13 -4 -10
-43 5 -47 4 -48 -10 -24 l-15 25 5 -24 c4 -18 2 -21 -6 -13 -9 9 -8 18 0 37
20 42 13 52 -10 16 -18 -28 -19 -36 -9 -53 7 -11 10 -23 7 -26 -3 -3 -6 1 -6
9 0 12 -2 11 -11 -1 -9 -13 -10 -12 -5 2 3 10 1 20 -4 23 -9 6 41 99 64 120 6
6 16 21 22 34 9 22 11 22 24 5 13 -16 13 -17 -1 -12 -12 5 -16 2 -12 -11 3
-11 -4 -21 -21 -29 -14 -6 -26 -17 -25 -24 0 -10 2 -10 6 0 2 6 12 12 21 12
10 0 26 7 36 15 17 13 18 19 8 52 -9 30 -9 42 4 60 19 29 22 29 16 -2z m839
-17 c11 -11 19 -26 19 -32 -1 -6 -10 0 -21 13 -11 13 -23 21 -26 17 -4 -4 -3
-10 3 -14 15 -10 28 -52 16 -52 -13 0 -33 57 -26 75 8 20 13 19 35 -7z m-33
-98 c-7 -11 -16 -20 -20 -20 -5 0 -8 -5 -8 -10 0 -12 -139 -205 -148 -205 -4
0 -8 -8 -9 -18 -4 -26 -57 -101 -61 -87 -3 7 0 15 6 19 5 3 19 22 30 42 16 29
17 38 7 52 -13 19 -35 23 -35 7 0 -5 5 -10 10 -10 6 0 10 -7 10 -16 0 -14 -3
-14 -15 -4 -8 7 -15 21 -15 31 0 17 6 19 45 15 41 -3 45 -1 40 15 -5 14 -2 17
8 13 20 -7 33 32 16 52 -6 8 -9 17 -5 21 3 4 13 -2 20 -13 25 -33 39 -4 39 81
0 57 3 75 13 71 7 -3 25 -1 41 3 34 10 49 -9 31 -39z m-965 -125 c-3 -9 -8
-14 -10 -11 -3 3 -2 9 2 15 9 16 15 13 8 -4z m827 -21 c0 -8 -4 -14 -10 -14
-5 0 -10 2 -10 4 0 2 -3 12 -6 20 -5 12 -2 15 10 10 9 -3 16 -12 16 -20z
m-834 -92 c-1 -17 -6 -35 -10 -39 -4 -4 -5 6 -1 22 l6 30 -18 -27 c-26 -40
-36 -34 -12 7 14 22 18 42 14 57 -7 23 -7 23 8 3 9 -12 14 -35 13 -53z m-39
14 c-7 -14 -13 -23 -15 -21 -7 6 9 45 18 45 4 0 3 -11 -3 -24z m709 -41 c4
-14 4 -29 0 -32 -3 -4 -6 3 -6 15 0 12 -4 22 -10 22 -5 0 -10 5 -10 10 0 21
20 9 26 -15z m-736 -5 c0 -5 -5 -10 -11 -10 -5 0 -7 5 -4 10 3 6 8 10 11 10 2
0 4 -4 4 -10z m810 -14 c0 -8 -4 -18 -10 -21 -5 -3 -10 3 -10 14 0 12 5 21 10
21 6 0 10 -6 10 -14z m-770 -36 c0 -10 7 -25 15 -34 23 -23 20 -98 -5 -116
-11 -8 -20 -24 -20 -35 0 -16 -2 -17 -10 -5 -6 10 -10 11 -10 3 0 -9 -18 -13
-55 -13 l-55 0 1 33 c0 17 3 26 6 20 3 -8 26 -13 63 -13 65 0 75 9 60 60 -5
17 -6 38 -3 46 4 12 0 15 -18 12 -18 -2 -23 -9 -21 -26 1 -13 -3 -31 -8 -40
-8 -13 -9 -10 -4 13 5 29 5 29 -10 11 -9 -11 -16 -23 -16 -28 0 -4 -4 -8 -10
-8 -5 0 0 16 12 36 11 20 22 48 23 62 1 15 3 32 3 38 1 6 15 9 32 6 21 -3 30
-10 30 -22z m-77 -47 c-3 -7 -9 -13 -14 -13 -5 0 -9 -6 -9 -13 0 -8 -8 -22
-19 -31 -17 -15 -16 -13 3 27 11 24 26 43 33 43 6 1 9 -5 6 -13z m791 1 c17
-7 22 -34 6 -34 -5 0 -10 5 -10 10 0 6 -4 10 -10 10 -13 0 -13 -27 0 -32 7 -2
3 -18 -8 -41 l-18 -38 -1 58 c0 33 4 61 11 65 14 9 11 9 30 2z m-849 -203 c-7
-33 -20 -32 -36 3 -8 18 -9 17 -4 -6 3 -16 1 -28 -5 -28 -13 0 -13 26 2 67 12
33 12 33 31 14 15 -14 17 -26 12 -50z m736 22 l10 -27 19 30 c24 36 26 23 3
-17 -19 -32 -33 -38 -33 -14 0 8 -4 15 -10 15 -5 0 -10 -4 -10 -10 0 -5 -7
-10 -15 -10 -18 0 -20 -27 -2 -33 6 -2 8 -8 4 -13 -4 -5 -12 -2 -17 5 -4 8
-15 11 -24 8 -11 -5 -16 -1 -16 13 0 22 16 27 23 8 3 -7 6 6 6 30 1 38 3 42
26 42 18 0 28 -8 36 -27z m2 -70 c-3 -7 -6 -13 -8 -13 -2 0 -5 6 -8 13 -3 8 1
14 8 14 7 0 11 -6 8 -14z m-813 -18 c0 -8 -4 -15 -10 -15 -5 0 -7 7 -4 15 4 8
8 15 10 15 2 0 4 -7 4 -15z m80 -15 c0 -23 -4 -30 -20 -30 -14 0 -20 7 -20 23
0 18 2 19 10 7 8 -12 10 -11 10 8 0 12 5 22 10 22 6 0 10 -13 10 -30z m668 -5
c-7 -34 6 -40 20 -10 7 14 16 25 21 25 6 0 -3 -26 -18 -57 -16 -32 -34 -73
-41 -90 -7 -18 -16 -33 -21 -33 -5 0 -9 -10 -9 -21 0 -17 -3 -19 -13 -10 -16
12 -27 5 -27 -18 0 -14 2 -14 11 -1 8 12 9 10 4 -7 -3 -13 -9 -35 -11 -50 -7
-39 -20 -49 -19 -15 0 15 3 29 7 32 4 3 4 19 -1 35 l-8 30 -8 -37 c-8 -43 -35
-53 -35 -14 0 13 -3 31 -6 40 -5 12 0 16 20 16 26 0 32 13 28 61 -1 13 8 16
44 15 l45 -1 -5 35 c-4 22 -3 28 3 16 5 -12 10 -16 14 -9 8 13 -1 43 -13 43
-4 0 -5 11 -2 25 2 14 9 25 14 25 6 0 8 -11 6 -25z m-756 -71 c-8 -27 -7 -34
4 -34 8 0 14 9 14 20 0 11 5 20 11 20 6 0 8 9 4 23 -6 21 -5 21 6 2 7 -11 19
-26 26 -34 8 -7 12 -20 9 -28 -3 -8 -6 -20 -6 -27 0 -19 -35 -56 -54 -56 -9 0
-16 5 -16 10 0 6 5 10 10 10 6 0 10 10 10 22 0 20 -2 19 -28 -10 -16 -18 -39
-32 -50 -32 -21 0 -29 -17 -22 -45 7 -28 11 -151 6 -172 -4 -12 -13 -23 -21
-23 -11 0 -15 -11 -15 -40 0 -28 -4 -40 -14 -40 -8 0 -17 -8 -19 -17 -3 -12
-3 -12 -2 2 1 11 6 28 10 38 4 10 3 17 -4 17 -6 0 -13 -12 -16 -27 -3 -16 -10
-47 -15 -71 -6 -23 -11 -57 -11 -75 -1 -21 -3 -25 -6 -12 -3 11 -10 23 -16 27
-7 4 -7 24 3 65 7 32 15 52 17 45 3 -7 0 -27 -6 -45 -10 -30 -10 -31 5 -12 11
14 14 33 11 64 -3 27 -2 38 4 30 6 -10 9 -8 9 9 0 12 5 22 11 22 15 0 32 20
51 59 14 29 14 36 2 48 -8 8 -14 20 -14 28 0 7 -3 22 -7 32 -6 16 -5 16 10 4
19 -15 23 -1 5 17 -9 9 -9 12 1 12 7 0 10 4 7 9 -3 5 -1 23 5 40 8 22 16 30
28 27 10 -3 23 5 35 20 16 23 17 29 5 52 -22 44 -22 45 -9 37 8 -5 11 -1 9 11
-2 11 0 25 5 33 16 25 30 -17 18 -55z m-38 -57 c-8 -21 -34 -30 -34 -12 0 8 5
15 10 15 6 0 10 10 10 23 1 19 2 20 10 5 6 -9 7 -23 4 -31z m623 -204 c-2 -27
-3 -40 0 -30 2 9 9 17 14 17 11 0 12 -13 0 -25 -15 -17 -21 -74 -9 -81 7 -4 8
-3 4 5 -4 6 -3 17 2 24 5 7 13 27 17 45 3 17 11 32 16 32 5 0 9 -2 9 -5 0 -16
-73 -202 -85 -215 -17 -18 -20 -34 -6 -26 5 4 7 -4 4 -15 -6 -21 -6 -21 -18 2
-14 26 -9 47 20 81 18 20 20 35 18 131 -2 74 1 107 8 107 8 0 10 -16 6 -47z
m-718 -65 c-19 -19 -31 -29 -26 -24 4 6 7 18 7 28 0 10 7 18 15 18 8 0 15 9
15 21 0 11 -4 18 -9 15 -5 -4 -7 3 -4 15 5 19 7 18 20 -10 15 -29 14 -31 -18
-63z m7279 -87 c2 -6 22 -11 44 -11 l40 0 -5 -37 c-3 -21 -3 -30 -1 -20 3 9
10 17 15 17 13 0 11 -14 -3 -28 -9 -9 -9 -15 0 -24 9 -9 12 -8 13 8 0 10 3 14
5 7 3 -6 0 -31 -7 -55 -6 -24 -14 -37 -17 -29 -4 11 -6 11 -13 0 -5 -9 -7 7
-5 39 2 28 0 52 -4 52 -4 0 -10 14 -13 30 -5 22 -12 30 -27 30 -12 0 -29 4
-38 9 -21 11 -162 19 -162 9 0 -3 12 -8 28 -10 23 -4 -100 -3 -443 3 -33 0
-91 -2 -130 -4 -70 -6 -70 -6 -15 4 134 23 211 27 465 24 181 -2 271 -7 273
-14z m-65 -18 c-7 -2 -19 -2 -25 0 -7 3 -2 5 12 5 14 0 19 -2 13 -5z m-6608
-23 c-8 -25 3 -26 21 -3 7 10 16 15 20 10 4 -4 -3 -18 -16 -32 -18 -19 -21
-27 -11 -39 8 -9 10 -31 5 -65 -4 -35 -3 -51 5 -51 6 0 10 -12 10 -27 -1 -17
-3 -21 -6 -10 -5 18 -23 24 -23 7 0 -5 -10 -10 -21 -10 -20 0 -21 -4 -16 -57
5 -53 5 -56 -9 -38 -14 18 -15 15 -10 -38 2 -32 6 -61 9 -63 2 -3 10 22 18 56
7 33 17 60 22 60 5 0 7 -10 3 -22 -3 -13 -6 -33 -6 -46 0 -13 -4 -20 -10 -17
-6 4 -10 -7 -10 -25 0 -17 -4 -29 -9 -25 -6 3 -8 -18 -6 -52 2 -32 1 -47 -2
-33 -4 20 -7 22 -12 8 -3 -9 -7 51 -9 133 -3 140 -2 152 17 168 16 14 19 29
19 101 -1 122 0 130 18 130 11 0 14 -6 9 -20z m5775 -9 c0 -4 -12 -7 -27 -6
-16 1 -20 0 -10 -2 9 -2 15 -9 12 -14 -4 -5 10 -9 29 -9 20 0 36 5 36 10 0 6
9 10 20 10 17 0 20 -7 20 -40 l0 -40 -40 0 c-35 0 -40 3 -40 23 0 17 -10 27
-40 40 -48 20 -90 23 -45 2 33 -15 28 -17 -44 -19 -27 0 -44 2 -38 6 8 5 6 8
-5 8 -10 0 -18 -4 -18 -8 0 -5 -23 -9 -51 -9 -27 0 -49 1 -47 3 2 1 51 12 108
24 58 11 114 24 125 29 21 8 55 3 55 -8z m-6410 -86 c-7 -45 -7 -46 -9 -13 -1
32 8 74 14 66 1 -2 -1 -25 -5 -53z m694 -20 c6 -28 5 -29 -9 -11 -8 11 -15 28
-15 37 0 10 -4 21 -10 24 -5 3 -10 11 -10 17 0 20 37 -37 44 -67z m-604 15 c0
-29 -4 -40 -15 -40 -16 0 -20 35 -9 64 11 29 24 16 24 -24z m7224 24 c9 -24 7
-27 -9 -10 -17 17 -19 26 -6 26 5 0 12 -7 15 -16z m-1237 -5 c6 -6 10 -17 9
-23 -2 -6 -1 -8 1 -3 7 11 43 9 43 -3 0 -5 9 -10 20 -10 11 0 20 -5 20 -11 0
-15 -162 -8 -167 8 -2 6 -13 9 -23 6 -11 -3 -18 -8 -16 -12 3 -4 -17 -7 -42
-8 -26 -1 -42 1 -37 3 13 5 168 61 176 63 3 0 10 -4 16 -10z m2428 -5 c66 -3
121 -7 123 -9 10 -10 -127 -15 -151 -6 -16 6 -56 10 -90 10 l-62 -2 65 -10
c36 -5 94 -10 130 -10 70 0 365 0 440 0 34 0 40 -2 25 -8 -13 -5 -2 -6 28 -3
26 4 48 2 48 -2 7 -46 6 -95 -2 -83 -5 8 -6 26 -3 42 l6 27 -86 0 c-51 0 -86
4 -86 10 0 6 -53 9 -142 8 l-143 -2 125 -6 c104 -5 88 -6 -93 -6 -179 0 -220
-3 -228 -15 -9 -12 -10 -12 -6 1 2 8 17 18 33 21 l29 7 -27 1 c-37 1 -56 -31
-56 -94 1 -44 2 -47 9 -20 5 17 6 38 3 49 -4 12 -2 16 5 12 6 -4 9 -44 8 -106
-2 -91 -12 -112 -21 -43 -2 15 -8 39 -13 53 -10 27 -10 72 1 111 l7 24 -21
-25 -21 -25 6 24 c5 16 4 21 -4 17 -6 -4 -11 -2 -11 3 0 6 9 11 19 11 11 0 23
5 26 10 3 6 -5 10 -19 10 -14 0 -28 5 -31 10 -11 18 6 31 33 26 15 -3 81 -8
147 -12z m188 -11 c-7 -2 -21 -2 -30 0 -10 3 -4 5 12 5 17 0 24 -2 18 -5z
m-1262 -30 c-8 -15 -10 -15 -11 -2 0 17 10 32 18 25 2 -3 -1 -13 -7 -23z
m-7484 -5 c-3 -8 -6 -5 -6 6 -1 11 2 17 5 13 3 -3 4 -12 1 -19z m9159 -23 c8
-24 8 -37 0 -45 -8 -8 -7 -13 3 -19 7 -5 15 -25 16 -45 3 -34 2 -36 -26 -36
-16 0 -29 5 -29 10 0 6 4 10 9 10 4 0 8 31 7 70 -1 38 -4 70 -8 70 -5 0 -8 7
-8 15 0 26 25 6 36 -30z m-8432 20 c3 -8 1 -15 -4 -15 -6 0 -10 7 -10 15 0 8
2 15 4 15 2 0 6 -7 10 -15z m5706 5 c0 -5 -11 -10 -25 -10 -14 0 -25 5 -25 10
0 6 11 10 25 10 14 0 25 -4 25 -10z m-530 -29 c0 -5 -33 -21 -72 -35 -40 -14
-58 -23 -40 -20 25 4 32 2 32 -10 0 -9 5 -16 11 -16 6 0 9 9 6 20 -4 15 0 20
14 20 10 0 19 -4 19 -10 0 -5 7 -7 15 -4 16 6 19 -4 9 -30 -5 -13 -22 -16 -85
-16 -66 0 -77 2 -72 15 5 14 1 13 -31 -1 -38 -19 -50 -40 -16 -29 12 4 26 1
34 -7 11 -12 2 -14 -58 -15 -100 -2 -96 -1 -89 -20 6 -15 5 -16 -9 -3 -14 13
-4 21 100 72 65 31 122 57 128 58 7 0 31 9 55 20 52 23 49 22 49 11z m1607
-33 c-3 -8 -6 -5 -6 6 -1 11 2 17 5 13 3 -3 4 -12 1 -19z m-7530 -20 c-3 -7
-5 -2 -5 12 0 14 2 19 5 13 2 -7 2 -19 0 -25z m5923 22 c0 -5 -4 -10 -10 -10
-5 0 -10 5 -10 10 0 6 5 10 10 10 6 0 10 -4 10 -10z m-5922 -106 c-1 -32 -5
-49 -10 -42 -11 19 -10 110 2 103 5 -3 9 -30 8 -61z m7538 39 c-10 -10 -19 5
-10 18 6 11 8 11 12 0 2 -7 1 -15 -2 -18z m-6809 -5 c-3 -8 -6 -5 -6 6 -1 11
2 17 5 13 3 -3 4 -12 1 -19z m6817 -32 c16 6 30 -66 16 -80 -10 -10 -15 16
-12 59 2 16 0 17 -8 5 -5 -8 -10 -12 -10 -8 0 3 -2 12 -3 20 -2 7 -2 10 0 6 2
-4 10 -5 17 -2z m-7577 -48 c-3 -7 -5 -2 -5 12 0 14 2 19 5 13 2 -7 2 -19 0
-25z m5610 7 c5 -18 -14 -37 -33 -32 -17 4 -17 6 4 12 22 7 31 25 12 25 -13 0
-77 -40 -65 -41 33 -2 60 -11 63 -19 2 -6 12 -10 23 -10 10 0 19 -5 19 -11 0
-8 -31 -10 -100 -7 -95 4 -100 3 -79 -13 29 -21 17 -27 -58 -26 l-63 0 33 20
c57 36 119 66 131 63 6 -2 7 -1 2 2 -12 6 75 52 93 49 8 -1 16 -6 18 -12z
m3630 -7 c-3 -8 -6 -5 -6 6 -1 11 2 17 5 13 3 -3 4 -12 1 -19z m-1646 -123 l2
-50 6 45 7 45 5 -55 c3 -30 2 -68 -2 -85 l-7 -30 -1 28 c-1 15 -5 27 -11 27
-5 0 -10 12 -10 26 0 14 -4 23 -10 19 -12 -8 -13 -45 -1 -45 5 0 11 -18 15
-40 5 -31 11 -40 26 -40 24 0 25 -6 5 -27 -12 -11 -27 -14 -58 -10 -29 4 -36
3 -22 -3 11 -5 34 -9 50 -9 33 -1 63 -16 53 -26 -4 -4 -21 -2 -40 4 -108 34
-136 39 -175 34 -24 -3 -48 -1 -55 4 -8 6 -114 10 -275 9 -228 -1 -256 1 -215
12 40 10 251 11 497 0 11 0 43 2 70 5 l50 6 -53 -10 c-30 -6 -52 -12 -50 -14
2 -1 46 1 98 5 52 4 86 8 75 9 -17 1 -18 3 -5 11 9 6 11 13 5 18 -10 7 -11 24
-6 177 2 79 3 79 16 45 7 -19 14 -57 16 -85z m-7611 -6 c-7 -38 -15 -69 -19
-69 -4 0 -4 21 0 48 5 26 12 67 16 92 5 31 9 38 11 22 2 -13 -2 -55 -8 -93z
m47 21 l0 -35 -6 40 -7 40 -8 -56 c-4 -31 -8 -69 -8 -85 -1 -59 -7 -74 -33
-74 -14 0 -25 5 -25 10 0 6 4 10 8 10 10 0 44 115 49 170 7 65 15 81 23 45 4
-16 8 -46 7 -65z m5603 80 c0 -5 -5 -10 -11 -10 -5 0 -7 5 -4 10 3 6 8 10 11
10 2 0 4 -4 4 -10z m3614 -42 c-3 -40 -1 -47 5 -28 8 22 9 20 8 -15 0 -53 25
-245 32 -241 3 2 7 -17 8 -43 2 -44 2 -45 -11 -21 l-14 24 -5 -24 c-3 -14 -3
7 -1 45 5 81 -2 76 -15 -10 l-9 -60 -1 85 c-1 66 -4 81 -12 66 -6 -10 -9 -33
-6 -52 3 -19 2 -34 -3 -34 -5 0 -7 -13 -3 -30 5 -27 3 -30 -19 -30 -25 0 -25
1 -25 80 l0 80 27 0 c22 0 28 4 27 23 0 12 3 40 7 62 6 30 5 36 -3 25 -8 -11
-10 1 -5 45 10 107 24 148 18 53z m-74 20 c0 -9 4 -8 10 2 7 11 10 4 10 -27 0
-36 -3 -43 -20 -43 -17 0 -20 7 -20 40 0 22 5 40 10 40 6 0 10 -6 10 -12z
m-624 -164 c13 -74 13 -75 9 -19 -3 33 -8 72 -11 88 -4 15 -2 27 3 27 14 0 28
-109 27 -210 -1 -94 2 -95 15 -5 8 59 9 59 10 15 0 -25 -3 -60 -9 -79 -7 -26
-6 -37 5 -48 8 -8 15 -10 15 -4 0 17 29 13 48 -6 12 -12 13 -18 4 -21 -6 -2
-12 -12 -12 -23 0 -10 -4 -19 -10 -19 -5 0 -10 5 -10 10 0 6 -7 10 -15 10 -8
0 -15 5 -15 12 0 18 -17 -3 -23 -27 -2 -11 -4 3 -4 30 0 45 -45 319 -59 355
-4 11 -2 12 6 4 6 -6 18 -47 26 -90z m38 63 c4 -19 3 -26 -4 -22 -5 3 -10 18
-10 32 0 32 5 28 14 -10z m86 -7 c0 -22 -4 -40 -10 -40 -5 0 -10 4 -10 9 0 5
-3 23 -6 40 -5 24 -3 31 10 31 12 0 16 -10 16 -40z m-3380 10 c-8 -5 -19 -10
-25 -10 -5 0 -3 5 5 10 8 5 20 10 25 10 6 0 3 -5 -5 -10z m-5273 -37 c-3 -10
-5 -4 -5 12 0 17 2 24 5 18 2 -7 2 -21 0 -30z m9153 17 c0 -5 -4 -10 -10 -10
-5 0 -10 5 -10 10 0 6 5 10 10 10 6 0 10 -4 10 -10z m-3915 -6 c23 -9 0 -24
-36 -24 -15 0 -29 -7 -33 -15 -3 -8 -13 -15 -23 -15 -21 0 -10 11 37 38 19 11
36 21 37 21 1 1 9 -2 18 -5z m55 -39 c0 -16 -6 -25 -16 -25 -9 0 -24 -8 -33
-18 -9 -10 -33 -18 -56 -19 -22 -1 -33 1 -25 3 8 3 22 8 30 11 8 4 19 5 23 4
12 -2 37 26 37 42 0 14 13 24 33 26 4 1 7 -10 7 -24z m-4633 -77 c-2 -18 -4
-4 -4 32 0 36 2 50 4 33 2 -18 2 -48 0 -65z m7910 60 c-3 -7 -5 -2 -5 12 0 14
2 19 5 13 2 -7 2 -19 0 -25z m-3367 6 c0 -12 -34 -33 -52 -34 -10 0 -18 5 -18
10 0 6 9 10 19 10 11 0 23 5 26 10 7 11 25 14 25 4z m1375 -64 c3 -5 18 -10
33 -9 l27 1 -25 9 c-22 7 -21 8 10 7 19 -1 40 -6 47 -11 7 -5 20 -4 32 2 25
14 54 14 46 1 -4 -6 6 -7 27 -4 25 5 30 4 22 -5 -6 -7 -40 -16 -75 -21 -35 -5
-78 -14 -96 -19 -23 -7 -35 -6 -42 3 -8 10 -3 11 22 8 17 -3 29 -1 25 3 -4 4
-30 7 -60 7 -29 -1 -56 4 -59 10 -4 6 -10 2 -14 -11 -3 -11 -11 -21 -16 -21
-5 0 -9 -7 -9 -15 0 -11 8 -13 33 -9 30 4 30 4 7 -6 -17 -8 -31 -8 -48 -1 -13
6 -40 10 -60 10 l-37 -2 35 -6 35 -7 -35 -5 c-19 -3 -43 -9 -52 -14 -11 -4
-18 -3 -18 4 0 6 8 12 18 12 16 1 16 2 0 6 -10 2 -18 11 -18 19 0 17 -17 19
-22 2 -3 -9 -9 -8 -21 4 -26 25 -22 28 38 28 37 0 55 -4 56 -12 0 -10 2 -10 6
0 3 7 24 12 53 12 40 0 50 4 55 20 5 15 15 20 40 20 19 0 37 -4 40 -10z
m-6650 -137 c2 -44 1 -93 -4 -109 -5 -19 -8 10 -8 84 0 62 2 111 4 109 2 -2 5
-40 8 -84z m698 55 c4 -10 8 -9 16 2 9 13 11 13 11 -2 0 -9 -4 -20 -10 -23 -5
-3 -9 -21 -8 -40 1 -19 -2 -38 -5 -42 -4 -3 -7 15 -7 40 0 61 -17 61 -24 0
-11 -99 -11 -243 2 -243 4 0 6 55 6 122 -1 68 0 104 3 81 2 -24 8 -43 14 -43
5 0 9 -7 9 -16 0 -9 -5 -12 -12 -8 -8 5 -9 -11 -5 -63 5 -55 4 -73 -7 -82 -11
-9 -15 -9 -19 1 -2 7 -4 -49 -3 -125 2 -85 6 -141 13 -145 12 -8 -5 -122 -17
-122 -4 0 -7 33 -7 73 1 39 0 126 -1 192 -1 66 -1 171 0 234 2 84 0 115 -9
118 -19 7 -16 23 3 23 12 0 15 7 11 27 -7 39 33 74 46 41z m8027 2 c0 -5 -4
-10 -10 -10 -5 0 -10 5 -10 10 0 6 5 10 10 10 6 0 10 -4 10 -10z m-2222 -25
c-2 -3 -26 -11 -51 -19 -51 -15 -65 -7 -19 11 28 11 79 17 70 8z m-6438 -15
c0 -5 -4 -10 -10 -10 -5 0 -10 5 -10 10 0 6 5 10 10 10 6 0 10 -4 10 -10z
m5137 -22 c-3 -7 -5 -2 -5 12 0 14 2 19 5 13 2 -7 2 -19 0 -25z m1157 -4 c4
-11 1 -14 -11 -12 -9 2 -18 9 -21 16 -6 18 25 15 32 -4z m-6274 -84 c0 -47 -4
-80 -10 -80 -5 0 -10 15 -10 34 0 18 -3 54 -6 80 -6 38 -4 46 10 46 13 0 16
-13 16 -80z m6178 65 c4 -4 -11 -5 -33 -1 -28 5 -35 4 -25 -3 22 -15 2 -27
-20 -13 -11 7 -29 12 -40 12 -11 0 -20 4 -20 9 0 12 127 8 138 -4z m50 6 c9
-5 -7 -15 -50 -31 -35 -13 -67 -27 -72 -32 -6 -4 -15 -8 -20 -8 -6 0 -4 5 4
10 10 6 11 10 3 10 -7 0 -13 5 -13 11 0 6 7 8 16 5 20 -8 116 23 108 35 -7 11
7 11 24 0z m-1111 -208 c-2 -38 -3 -7 -3 67 0 74 1 105 3 68 2 -38 2 -98 0
-135z m870 131 c8 3 26 3 40 0 23 -6 20 -9 -33 -34 -56 -26 -85 -26 -69 0 4 7
17 9 33 5 23 -6 24 -4 12 10 -8 9 -22 14 -32 12 -10 -3 -16 -1 -12 4 3 5 12 9
20 9 8 0 15 6 15 13 1 6 3 4 6 -6 3 -11 10 -16 20 -13z m-5487 -34 c0 -22 -4
-40 -10 -40 -5 0 -10 18 -10 40 0 22 5 40 10 40 6 0 10 -18 10 -40z m8057 -42
c-2 -13 -4 -5 -4 17 -1 22 1 32 4 23 2 -10 2 -28 0 -40z m-8638 -55 c5 -205 1
-467 -8 -441 -2 7 -9 16 -14 20 -12 7 -14 62 -4 123 4 22 3 30 -1 17 -4 -13
-6 57 -5 155 1 118 5 179 12 181 6 2 11 10 11 18 0 8 2 14 3 14 2 0 5 -39 6
-87z m5711 30 c0 -33 -16 -61 -27 -49 -4 5 -2 11 5 13 6 3 12 18 12 34 0 16 2
29 5 29 3 0 5 -12 5 -27z m261 11 c-18 -8 -40 -14 -49 -14 -8 0 -13 -3 -9 -6
3 -3 -13 -16 -36 -29 -41 -22 -42 -22 -61 -3 -22 23 -14 37 9 14 13 -13 20
-13 36 -3 10 6 15 13 9 15 -5 2 -10 8 -10 14 0 5 9 6 20 3 12 -4 20 -2 20 5 0
8 -13 10 -40 5 -25 -4 -40 -3 -40 3 0 7 36 11 93 11 89 -1 91 -1 58 -15z
m2713 -40 c10 -26 7 -124 -4 -124 -5 0 -10 -12 -11 -27 0 -16 -4 -37 -9 -48
-7 -14 -8 -8 -4 20 3 22 8 48 11 58 5 19 -13 24 -20 5 -8 -19 -8 32 -1 86 7
46 26 62 38 30z m683 -51 c-3 -10 -5 -2 -5 17 0 19 2 27 5 18 2 -10 2 -26 0
-35z m-3624 20 c-7 -2 -19 -2 -25 0 -7 3 -2 5 12 5 14 0 19 -2 13 -5z m66 -2
c19 -12 -24 -35 -60 -33 -28 2 -68 -22 -57 -34 5 -4 16 0 26 9 21 20 40 23 20
4 -20 -19 -71 -50 -64 -39 5 9 -101 9 -109 0 -1 -2 -6 -17 -9 -35 -6 -24 -4
-32 8 -35 11 -2 8 -6 -10 -15 -21 -10 -24 -10 -14 2 10 12 6 13 -24 8 -25 -4
-36 -2 -36 7 0 8 8 10 24 6 20 -5 23 -3 19 13 -3 13 5 29 22 47 23 23 33 26
70 22 47 -6 58 -2 68 25 4 9 15 20 24 23 10 3 32 12 48 19 37 17 37 17 54 6z
m-109 -11 c0 -5 -4 -10 -10 -10 -5 0 -10 5 -10 10 0 6 5 10 10 10 6 0 10 -4
10 -10z m-5021 -122 c1 -56 -1 -100 -4 -97 -8 9 -14 210 -6 204 4 -2 9 -50 10
-107z m8699 -90 c1 -101 -2 -189 -7 -197 -6 -9 -8 56 -6 170 2 194 3 209 8
209 2 0 4 -82 5 -182z m-9298 72 c0 -47 -4 -80 -10 -80 -6 0 -10 33 -10 80 0
47 4 80 10 80 6 0 10 -33 10 -80z m5320 74 c0 -3 -6 -12 -14 -20 -20 -19 -26
-18 -26 6 0 13 7 20 20 20 11 0 20 -3 20 -6z m240 -29 c7 -8 10 -15 7 -15 -3
0 -14 -3 -24 -6 -15 -5 -15 -4 -3 5 13 9 12 11 -3 11 -10 0 -15 5 -12 10 9 14
21 12 35 -5z m3071 -127 c-1 -62 -6 -162 -12 -223 -6 -60 -10 -129 -10 -152 0
-49 -19 -58 -37 -18 -19 41 -15 75 8 75 19 0 20 6 18 163 l-2 162 -6 -125 c-3
-69 -7 -118 -9 -110 -6 36 -5 250 1 252 4 2 13 26 20 55 19 81 32 48 29 -79z
m-3235 32 c3 0 14 5 25 10 35 19 19 -6 -23 -37 -32 -22 -48 -28 -63 -22 -31
12 -42 10 -18 -4 22 -12 22 -13 -14 -42 -20 -16 -45 -28 -55 -28 -10 1 -16 -2
-13 -8 4 -5 -1 -9 -10 -9 -10 0 -13 -5 -9 -12 5 -7 3 -8 -5 -4 -7 5 -10 14 -7
21 2 7 -2 16 -11 19 -23 9 -28 -1 -9 -19 9 -9 16 -19 15 -23 -1 -12 -59 -54
-59 -43 0 6 6 11 13 11 8 0 8 3 1 8 -15 10 -25 42 -14 42 6 0 10 -7 10 -15 0
-9 6 -12 15 -9 8 4 15 10 15 16 0 5 -4 6 -10 3 -5 -3 -10 3 -10 14 0 12 -5 18
-12 16 -8 -3 -14 4 -14 17 -1 13 -5 34 -10 48 -7 23 -6 24 9 11 9 -7 17 -22
17 -32 0 -10 5 -21 10 -24 6 -3 10 -2 10 4 0 5 3 16 6 25 4 11 1 16 -10 16 -9
0 -16 5 -16 10 0 6 11 10 25 10 24 0 25 -2 19 -39 -7 -43 2 -51 50 -46 40 5
51 19 30 39 -15 16 -15 18 2 32 11 8 32 13 47 11 15 -2 30 0 33 4 2 5 11 6 19
2 9 -3 15 1 15 11 0 9 -7 16 -15 16 -18 0 -20 17 -2 23 6 2 13 -2 15 -10 2 -7
6 -13 8 -13z m-4799 -182 c-3 -7 -5 -2 -5 12 0 14 2 19 5 13 2 -7 2 -19 0 -25z
m-597 -114 c0 -58 -5 -115 -11 -126 -8 -16 -8 -22 2 -29 7 -4 10 -11 6 -15
-24 -24 -35 61 -23 179 5 53 13 97 18 97 4 0 8 -48 8 -106z m502 74 c4 -27 3
-162 -1 -265 -1 -13 -5 -23 -11 -23 -6 0 -10 60 -10 160 0 88 4 160 9 160 5 0
11 -15 13 -32z m92 13 c4 -5 8 -31 11 -58 l4 -48 -11 43 c-6 23 -15 42 -21 42
-5 0 -7 -10 -3 -22 3 -13 6 -41 7 -63 0 -27 3 -34 8 -22 4 10 8 -22 9 -72 3
-93 13 -141 32 -141 5 0 10 -5 10 -11 0 -13 -39 -2 -62 18 -14 13 -16 37 -15
179 1 120 5 164 14 164 6 0 14 -4 17 -9z m8043 -33 c-3 -7 -5 -2 -5 12 0 14 2
19 5 13 2 -7 2 -19 0 -25z m-8718 -102 c1 -95 -5 -80 -12 29 -3 54 -2 80 3 65
4 -14 8 -56 9 -94z m9373 -7 l-10 -64 2 87 c1 58 4 80 9 64 4 -13 4 -52 -1
-87z m-9395 -11 c-2 -13 -4 -5 -4 17 -1 22 1 32 4 23 2 -10 2 -28 0 -40z m726
-70 c3 -45 2 -78 -4 -78 -5 0 -9 37 -9 82 0 45 2 79 4 77 2 -2 6 -39 9 -81z
m-706 -30 c-3 -7 -5 -2 -5 12 0 14 2 19 5 13 2 -7 2 -19 0 -25z m8640 0 c-3
-7 -5 -2 -5 12 0 14 2 19 5 13 2 -7 2 -19 0 -25z m-8580 -80 c-3 -18 -3 -27 0
-20 10 26 19 10 20 -40 0 -47 0 -49 -7 -18 -6 29 -7 24 -8 -30 0 -47 2 -58 8
-40 5 15 8 -23 7 -97 -1 -68 -5 -123 -8 -123 -13 0 -19 66 -9 100 12 44 13 60
1 60 -6 0 -12 -15 -14 -32 -3 -30 -4 -29 -5 8 -3 57 -14 108 -21 96 -3 -6 -7
20 -9 56 -1 37 -7 71 -12 76 -21 21 -10 36 26 36 36 0 36 -1 31 -32z m8577
-52 c-3 -21 -8 -35 -11 -32 -2 2 -1 20 3 40 3 21 8 35 11 32 2 -2 1 -20 -3
-40z m-7974 14 c0 -5 -4 -10 -10 -10 -5 0 -10 5 -10 10 0 6 5 10 10 10 6 0 10
-4 10 -10z m67 -42 c-3 -7 -5 -2 -5 12 0 14 2 19 5 13 2 -7 2 -19 0 -25z
m7973 22 c0 13 1 13 10 0 12 -19 13 -170 1 -170 -12 0 -18 19 -27 85 -4 28
-11 53 -17 56 -6 4 -5 12 4 22 10 11 16 12 21 3 5 -7 8 -6 8 4z m600 -29 c0
-22 4 -41 10 -43 6 -2 7 -19 3 -43 l-8 -40 -6 40 c-4 31 -6 23 -6 -30 1 -38 2
-59 5 -45 2 14 7 30 12 35 13 18 21 83 10 90 -5 3 -10 21 -10 40 0 28 4 33 20
32 16 -1 20 -7 16 -27 -10 -53 -19 -136 -18 -160 2 -23 1 -23 -8 -5 -8 15 -9
10 -6 -24 3 -30 2 -40 -5 -30 -7 11 -11 11 -17 2 -4 -7 -9 12 -10 43 -1 31 -7
64 -12 74 -15 28 -12 50 6 50 14 0 16 7 11 40 -3 22 -1 40 4 40 5 0 9 -18 9
-39z m-671 -66 c-1 -17 -2 -16 -10 5 -6 18 -7 9 -4 -30 2 -30 5 -64 6 -75 1
-17 2 -16 9 5 6 20 7 16 7 -19 -1 -23 -3 -38 -5 -32 -6 18 -22 2 -22 -22 0
-12 -5 -29 -11 -37 -7 -11 -9 -3 -5 30 4 30 3 38 -3 25 -7 -16 -8 -12 -8 18 1
37 17 54 17 17 0 -11 4 -20 9 -20 6 0 6 13 -1 33 -17 56 -7 167 13 136 5 -8 8
-23 8 -34z m-7894 -35 c-4 -28 -9 -49 -12 -47 -2 3 -1 28 3 56 4 28 9 50 11
47 3 -3 2 -28 -2 -56z m-708 -12 c-3 -7 -5 -2 -5 12 0 14 2 19 5 13 2 -7 2
-19 0 -25z m8605 -10 c-8 -8 -9 -4 -5 13 4 13 8 18 11 10 2 -7 -1 -18 -6 -23z
m588 -38 c0 -22 -4 -40 -10 -40 -5 0 -10 18 -10 40 0 22 5 40 10 40 6 0 10
-18 10 -40z m-8455 -168 c5 -4 5 9 2 29 -3 20 -1 42 5 50 8 11 9 11 4 -3 -3
-10 1 -33 9 -52 17 -40 21 -70 6 -47 -7 11 -10 11 -15 0 -5 -11 -7 -11 -12 -1
-10 22 -25 13 -18 -13 8 -31 -2 -75 -17 -75 -11 0 -9 45 5 130 5 26 4 30 -3
15 -7 -14 -9 3 -8 60 0 51 3 71 8 55 6 -23 7 -22 9 10 2 19 6 -7 10 -58 5 -51
11 -96 15 -100z m8495 98 c0 -21 -5 -30 -16 -30 -14 0 -16 -9 -12 -65 5 -52 2
-67 -11 -79 -15 -14 -17 -10 -19 54 -1 39 2 70 6 70 13 0 32 48 26 65 -4 10 0
15 10 15 11 0 16 -9 16 -30z m-633 -37 c-3 -10 -5 -4 -5 12 0 17 2 24 5 18 2
-7 2 -21 0 -30z m672 -22 c-6 -28 -13 -51 -15 -51 -6 0 6 91 13 103 12 20 13
-4 2 -52z m-9222 -38 c-3 -10 -5 -4 -5 12 0 17 2 24 5 18 2 -7 2 -21 0 -30z
m33 -40 c-1 -5 -7 -19 -14 -32 l-13 -24 -5 32 c-4 25 -1 31 14 31 10 0 18 -3
18 -7z m30 -3 c0 -5 14 -10 30 -10 17 0 30 5 30 10 0 6 9 10 20 10 16 0 20 -7
20 -30 0 -23 -4 -30 -20 -30 -22 0 -27 16 -7 23 6 2 9 8 5 12 -4 4 -21 -7 -38
-25 -16 -18 -30 -26 -30 -19 -1 11 -3 10 -10 -1 -5 -9 -5 -30 1 -50 l9 -35 -5
38 c-2 20 0 35 5 32 5 -3 16 2 25 12 14 14 18 14 26 2 5 -8 9 -23 9 -34 0 -17
-2 -18 -11 -5 -7 11 -8 -2 -3 -45 4 -33 6 -83 5 -112 -2 -44 1 -52 18 -58 18
-5 21 -14 20 -63 0 -31 -5 -79 -9 -107 -9 -49 -9 -49 -5 14 l3 65 -16 -33
c-16 -33 -16 -33 -25 -10 -4 13 -9 37 -9 52 -1 15 -5 30 -10 33 -14 9 -9 22
12 29 11 4 18 11 14 16 -3 5 -14 7 -24 4 -17 -5 -18 1 -17 79 1 46 -1 79 -4
74 -10 -16 -32 60 -25 88 5 17 2 24 -9 24 -8 0 -15 5 -15 10 0 6 5 10 10 10 6
0 10 9 10 20 0 11 5 20 10 20 6 0 10 -4 10 -10z m8418 -130 c2 -98 0 -140 -8
-140 -7 0 -10 15 -7 43 2 23 2 32 0 20 -2 -13 -9 -23 -15 -23 -12 0 -1 79 14
97 6 7 4 23 -7 43 -9 18 -11 29 -5 25 7 -5 11 -1 9 11 -2 16 8 64 14 64 1 0 3
-63 5 -140z m724 115 c-2 -14 -9 -25 -14 -25 -6 0 -7 -12 -4 -27 5 -21 4 -24
-3 -13 -8 12 -10 8 -11 -15 0 -78 0 -80 -11 -65 -8 11 -9 9 -5 -12 3 -15 2
-29 -2 -32 -5 -3 -9 -19 -10 -35 0 -17 -5 -37 -9 -46 -6 -10 -9 28 -9 98 1 84
4 114 14 114 15 0 16 -39 0 -55 -6 -6 -8 -15 -4 -19 14 -14 27 23 22 64 -5 37
-2 46 22 68 15 14 27 25 28 25 1 0 -1 -11 -4 -25z m-8475 -17 c-3 -8 -6 -5 -6
6 -1 11 2 17 5 13 3 -3 4 -12 1 -19z m-699 -70 c6 -18 13 -42 16 -53 4 -11 -3
-2 -14 20 -19 38 -25 65 -15 65 2 0 8 -15 13 -32z m699 -10 c-3 -7 -5 -2 -5
12 0 14 2 19 5 13 2 -7 2 -19 0 -25z m-22 -20 c3 -24 4 -65 2 -93 -3 -27 -5
-58 -6 -67 -1 -10 -8 -18 -17 -18 -12 0 -14 10 -10 58 2 31 5 81 5 110 1 63
17 69 26 10z m7742 10 c-3 -8 -6 -5 -6 6 -1 11 2 17 5 13 3 -3 4 -12 1 -19z
m-7702 -28 c-8 -16 -15 -39 -14 -52 1 -19 3 -17 10 9 5 18 15 35 21 39 8 5 9
2 5 -10 -19 -48 -19 -97 -2 -116 10 -11 24 -20 31 -20 7 0 15 -4 18 -8 12 -20
-56 3 -73 24 -32 40 -19 162 17 164 1 0 -4 -13 -13 -30z m7685 -19 c0 -22 -7
-46 -15 -55 -9 -9 -15 -34 -15 -65 0 -28 -4 -51 -10 -51 -15 0 -12 -37 4 -43
14 -5 36 31 36 58 0 8 4 15 9 15 6 0 10 -36 9 -80 l0 -80 -29 0 c-27 0 -29 3
-29 40 0 29 -4 40 -15 40 -17 0 -20 -16 -5 -25 6 -3 10 -17 10 -31 0 -13 -4
-24 -10 -24 -5 0 -10 12 -10 28 -1 23 -2 25 -11 9 -5 -9 -7 -22 -4 -27 3 -6 1
-10 -4 -10 -6 0 -11 10 -10 23 2 35 13 68 24 68 12 -1 24 39 30 95 2 23 11 56
19 72 9 17 16 42 16 57 0 14 2 25 5 25 3 0 5 -18 5 -39z m-8373 -43 c-3 -7 -5
-2 -5 12 0 14 2 19 5 13 2 -7 2 -19 0 -25z m718 1 c-5 -16 -4 -19 5 -14 9 5
11 4 6 -4 -4 -6 -3 -18 4 -26 7 -9 8 -15 0 -20 -13 -8 -32 42 -25 66 4 11 9
19 11 19 3 0 2 -10 -1 -21z m-718 -41 c-3 -8 -6 -5 -6 6 -1 11 2 17 5 13 3 -3
4 -12 1 -19z m8990 -80 c-3 -8 -6 -5 -6 6 -1 11 2 17 5 13 3 -3 4 -12 1 -19z
m29 -57 c0 -44 -4 -74 -8 -68 -4 7 -8 26 -8 42 0 24 -2 27 -11 15 -9 -12 -10
-11 -4 5 4 11 9 35 12 53 10 59 20 33 19 -47z m25 23 c-6 -28 -9 -32 -10 -14
-1 30 11 79 16 64 2 -6 -1 -28 -6 -50z m-8276 -16 c-5 -27 -4 -29 5 -13 8 16
9 14 4 -12 -5 -31 20 -93 37 -93 13 0 30 -68 23 -94 -4 -18 2 -39 19 -71 14
-25 22 -45 16 -45 -5 0 -18 18 -29 40 -16 31 -26 40 -46 40 -21 0 -25 -3 -19
-17 5 -10 10 -33 13 -50 4 -30 2 -33 -22 -33 -25 0 -26 3 -26 50 0 38 4 50 15
50 9 0 18 12 22 30 4 23 11 30 29 30 13 0 24 5 24 10 0 6 -4 10 -10 10 -5 0
-7 6 -4 14 3 8 -2 16 -12 18 -10 2 -24 23 -35 53 l-17 50 1 -45 c0 -30 7 -52
20 -67 15 -17 17 -23 6 -23 -36 1 -42 16 -36 92 5 67 14 108 23 108 2 0 1 -15
-1 -32z m8159 -5 c8 -51 1 -147 -13 -170 -8 -13 -10 10 -11 95 0 110 12 149
24 75z m67 -135 c-7 -28 -9 -24 -8 32 0 55 2 60 9 33 5 -19 5 -47 -1 -65z
m-735 5 c-6 -65 -18 -113 -28 -113 -5 0 -7 9 -4 20 3 11 9 29 12 40 3 11 1 20
-4 20 -5 0 -7 11 -4 25 2 14 8 22 13 19 5 -3 9 2 9 10 0 9 2 16 5 16 2 0 3
-17 1 -37z m-8159 -55 c-3 -7 -5 -2 -5 12 0 14 2 19 5 13 2 -7 2 -19 0 -25z
m8839 -15 c-11 -11 -19 6 -11 24 8 17 8 17 12 0 3 -10 2 -21 -1 -24z m34 22
c0 -8 -2 -15 -4 -15 -2 0 -6 7 -10 15 -3 8 -1 15 4 15 6 0 10 -7 10 -15z
m-756 -39 c-3 -14 -10 -26 -15 -26 -5 0 -9 -8 -9 -19 0 -10 -7 -24 -15 -31
-21 -17 -19 -9 12 54 28 58 38 66 27 22z m-7338 -43 c7 -18 9 -33 4 -33 -4 0
-11 14 -15 30 -4 17 -11 28 -16 24 -11 -6 -12 19 -2 30 4 4 9 1 12 -6 2 -7 10
-28 17 -45z m8031 35 c-3 -8 -6 -5 -6 6 -1 11 2 17 5 13 3 -3 4 -12 1 -19z
m42 -32 c0 -7 -2 -6 -6 2 -2 6 -9 12 -14 12 -6 0 -6 -8 1 -19 15 -29 12 -39
-6 -16 -16 19 -16 19 -9 -5 10 -33 10 -31 -2 -60 -9 -23 -11 -21 -11 20 -2 60
16 105 34 89 8 -6 14 -17 13 -23z m-689 -31 c0 -40 -4 -55 -14 -55 -19 0 -27
26 -17 53 5 12 12 30 15 40 10 32 16 18 16 -38z m-8129 18 c-12 -20 -14 -14
-5 12 4 9 9 14 11 11 3 -2 0 -13 -6 -23z m26 -3 c-6 -16 -13 -27 -15 -25 -7 7
8 55 17 55 5 0 4 -13 -2 -30z m67 -27 c9 -71 12 -96 16 -148 l3 -40 7 45 7 45
1 -47 c1 -25 -3 -48 -8 -50 -13 -4 7 -68 21 -68 4 0 6 -7 3 -15 -4 -8 1 -17
10 -21 18 -7 22 -49 5 -60 -8 -4 -9 0 -4 15 4 14 2 21 -7 21 -7 1 -20 16 -29
35 -9 19 -12 32 -8 29 12 -7 11 7 -1 26 -5 8 -10 11 -10 5 -1 -15 -29 38 -30
55 0 8 -7 27 -14 43 -13 23 -13 27 0 27 8 0 14 -9 14 -19 0 -11 5 -23 10 -26
13 -8 13 20 0 43 -14 25 -40 110 -40 131 0 22 9 31 30 31 13 0 19 -13 24 -57z
m616 -18 c0 -5 -5 -3 -10 5 -5 8 -10 20 -10 25 0 6 5 3 10 -5 5 -8 10 -19 10
-25z m-673 -7 c-3 -8 -6 -5 -6 6 -1 11 2 17 5 13 3 -3 4 -12 1 -19z m754 -43
c6 -16 9 -30 8 -30 -1 0 10 -19 24 -42 30 -48 23 -60 -8 -13 -16 23 -21 26
-28 15 -4 -8 -5 -31 -1 -50 5 -30 10 -35 34 -35 23 0 30 -5 35 -30 4 -16 4
-34 0 -40 -9 -14 -45 -12 -45 3 0 8 -4 7 -10 -3 -7 -11 -10 -4 -10 28 0 25 -5
42 -11 42 -11 0 -8 77 4 120 2 8 2 12 0 8 -5 -9 -93 -11 -93 -2 0 18 34 36 60
32 27 -4 30 -2 24 16 -19 59 -7 46 17 -19z m7254 16 c-3 -16 -13 -36 -22 -43
-14 -12 -14 -9 0 19 10 18 17 40 17 49 0 10 3 15 6 11 3 -3 3 -19 -1 -36z
m-34 -18 c-11 -21 -20 -32 -21 -25 0 17 30 75 36 69 3 -3 -4 -22 -15 -44z
m-7321 17 c0 -5 -4 -10 -10 -10 -5 0 -10 5 -10 10 0 6 5 10 10 10 6 0 10 -4
10 -10z m7410 -4 c0 -29 -13 -46 -36 -46 -18 0 -22 4 -17 18 15 38 53 58 53
28z m-8053 -18 c-3 -8 -6 -5 -6 6 -1 11 2 17 5 13 3 -3 4 -12 1 -19z m8639
-44 c-3 -9 -6 -22 -6 -30 0 -8 -7 -14 -15 -14 -8 0 -15 6 -15 14 0 8 -3 21 -6
30 -5 12 0 16 21 16 21 0 26 -4 21 -16z m53 -27 c-11 -23 -23 -50 -26 -59 -3
-10 -9 -18 -14 -18 -14 0 -11 17 5 33 9 8 13 24 10 38 -5 20 -4 21 6 9 10 -12
11 -10 8 11 -3 18 0 25 13 26 16 2 16 -1 -2 -40z m-42 -19 c-3 -7 -5 -2 -5 12
0 14 2 19 5 13 2 -7 2 -19 0 -25z m-7887 -8 c0 -5 -4 -10 -10 -10 -5 0 -10 5
-10 10 0 6 5 10 10 10 6 0 10 -4 10 -10z m7129 -44 c-12 -20 -24 -35 -26 -32
-3 2 6 23 19 45 13 22 24 37 26 32 2 -5 -7 -25 -19 -45z m-7013 -117 c13 -15
12 -16 -11 -11 -14 2 -24 10 -22 16 2 6 -4 27 -14 46 -10 19 -21 49 -24 65 -3
18 7 4 25 -35 17 -35 37 -72 46 -81z m7040 73 c-12 -12 -18 8 -10 35 l8 28 4
-28 c2 -16 1 -31 -2 -35z m676 21 c6 -43 1 -54 -13 -33 -7 10 -8 3 -3 -24 5
-28 4 -37 -5 -32 -17 11 -15 126 3 126 8 0 16 -14 18 -37z m-8438 -39 c15 -38
-9 -41 -32 -4 -11 17 -10 20 7 20 10 0 22 -7 25 -16z m47 -1 c1 -10 3 -31 6
-48 2 -16 5 -45 5 -62 1 -20 7 -33 15 -33 7 0 13 -9 13 -20 0 -11 -4 -20 -10
-20 -5 0 -10 5 -10 12 0 6 -9 1 -20 -12 l-20 -23 0 101 c0 61 -4 102 -10 102
-5 0 -10 5 -10 10 0 18 40 11 41 -7z m7659 9 c0 -5 -11 -22 -24 -37 -13 -15
-37 -53 -53 -84 -15 -31 -31 -58 -35 -61 -4 -3 -3 -12 2 -20 12 -18 13 -80 2
-80 -5 0 -17 -7 -28 -16 -18 -15 -18 -15 9 -9 30 6 36 -8 12 -31 -12 -12 -15
-12 -16 -2 0 10 -2 10 -6 1 -2 -7 -12 -13 -20 -13 -9 0 -22 -8 -29 -17 -12
-17 -13 -17 -19 0 -4 9 -11 17 -16 17 -14 0 -11 -28 4 -33 6 -2 -2 -4 -19 -3
l-31 1 43 60 c24 33 48 65 54 72 5 7 10 17 10 23 0 6 4 8 10 5 6 -3 7 1 4 9
-3 9 -2 16 4 16 20 0 20 -28 1 -49 -11 -12 -24 -21 -28 -21 -11 0 -35 -59 -27
-67 3 -3 6 1 6 10 0 10 4 17 9 17 15 0 69 59 67 72 -1 7 -6 23 -10 35 -6 18 5
44 51 118 53 86 73 110 73 87z m760 -20 c0 -5 -7 -17 -16 -28 -8 -10 -14 -14
-11 -9 2 6 7 18 10 28 7 17 17 23 17 9z m-7800 -42 c-18 -11 -24 -6 -16 16 5
14 9 15 19 5 9 -9 9 -14 -3 -21z m7100 -30 c0 -33 -3 -40 -20 -40 -22 0 -23 3
-14 49 10 46 34 40 34 -9z m-85 -7 c-3 -52 -3 -53 -17 -53 -9 0 -9 3 0 12 7 7
12 19 12 28 0 9 -7 4 -18 -12 -28 -46 -33 -31 -5 17 13 25 26 45 27 45 2 0 2
-17 1 -37z m741 -10 c-8 -15 -15 -25 -16 -21 0 12 23 58 27 54 3 -2 -2 -17
-11 -33z m-8454 -5 c-7 -7 -12 -8 -12 -2 0 14 12 26 19 19 2 -3 -1 -11 -7 -17z
m38 -18 c0 -13 -1 -13 -10 0 -8 12 -10 12 -10 1 0 -8 -3 -12 -6 -8 -3 3 -3 15
1 28 6 17 9 19 16 8 5 -8 9 -21 9 -29z m799 -75 c14 -22 29 -45 33 -51 10 -14
-28 -54 -52 -54 -16 0 -20 7 -20 30 0 17 5 30 10 30 6 0 10 -4 10 -10 0 -5 9
-10 20 -10 11 0 20 2 20 5 0 16 -31 63 -44 68 -18 7 -31 -9 -16 -18 6 -4 5
-11 -4 -21 -27 -26 -35 -15 -34 42 1 49 3 54 15 38 7 -9 16 -15 20 -11 3 4 -1
15 -10 25 -10 10 -17 25 -17 33 0 8 10 -2 22 -21 11 -19 32 -53 47 -75z m-199
85 c0 -5 7 -10 15 -10 8 0 15 -4 15 -10 0 -5 -16 -10 -35 -10 -28 0 -35 4 -35
20 0 13 7 20 20 20 11 0 20 -4 20 -10z m116 -6 c-3 -9 -6 -18 -6 -20 0 -2 -16
-4 -35 -4 -19 0 -35 5 -35 10 0 6 14 10 30 10 17 0 30 5 30 10 0 6 5 10 11 10
6 0 8 -7 5 -16z m6998 0 c9 -23 8 -24 -14 -24 -11 0 -20 2 -20 4 0 12 13 36
20 36 4 0 11 -7 14 -16z m-7717 -51 c1 -24 1 -25 -7 -8 -11 26 -12 35 -2 35 4
0 8 -12 9 -27z m8379 14 c2 -7 -8 -36 -23 -64 l-28 -51 -1 46 c-1 29 1 39 6
28 5 -15 9 -16 15 -7 4 7 3 16 -2 20 -6 3 -13 13 -16 21 -4 12 -6 11 -6 -2 -1
-10 -7 -18 -14 -18 -8 0 -22 -18 -32 -40 -10 -22 -22 -40 -27 -40 -4 0 -8 18
-8 40 0 29 4 40 15 40 8 0 15 6 15 13 0 8 4 7 10 -3 8 -12 10 -11 10 8 0 19 5
22 40 22 24 0 43 -5 46 -13z m-8325 -77 c-12 -7 -12 -14 3 -43 16 -35 17 -35
66 -31 37 4 55 1 66 -11 14 -13 14 -17 -2 -32 -16 -16 -16 -16 -9 6 6 19 4 23
-9 18 -8 -3 -18 -2 -21 4 -4 5 -13 3 -22 -6 -12 -12 -18 -13 -29 -4 -23 19
-16 2 11 -25 14 -14 22 -31 19 -39 -3 -8 -1 -18 4 -21 14 -8 25 25 12 38 -13
13 -13 46 0 46 10 0 13 -14 14 -85 1 -22 5 -46 10 -53 4 -7 6 -15 3 -18 -2 -3
-17 16 -32 41 -15 26 -24 49 -21 52 2 3 -6 16 -20 30 -13 13 -24 28 -24 34 0
5 -11 27 -25 49 -31 49 -31 55 -3 57 17 2 19 0 9 -7z m29 -50 c0 -13 -1 -13
-10 0 -5 8 -10 22 -10 30 0 13 1 13 10 0 5 -8 10 -22 10 -30z m780 -10 c0 -5
-4 -10 -10 -10 -5 0 -10 5 -10 10 0 6 5 10 10 10 6 0 10 -4 10 -10z m7460 0
c0 -5 -4 -10 -9 -10 -5 0 -13 -10 -18 -22 -4 -13 -30 -60 -58 -106 -27 -45
-55 -90 -60 -100 -33 -55 -93 -139 -110 -154 -11 -10 -16 -17 -12 -18 11 0
-49 -86 -88 -126 -16 -17 -31 -37 -33 -44 -1 -6 -14 -27 -29 -45 -29 -36 -53
-36 -53 0 0 13 -3 30 -6 38 -3 9 0 15 8 14 45 -2 68 4 68 18 0 8 9 15 19 15
20 0 36 26 22 35 -5 3 -12 -2 -15 -11 -7 -17 -26 -10 -26 10 0 8 13 12 35 11
30 -1 38 4 56 33 14 24 15 33 6 29 -10 -4 -14 6 -16 41 -1 50 8 62 52 62 27 0
33 12 29 63 -2 15 4 18 35 15 26 -2 37 1 40 12 4 13 3 13 -6 0 -7 -10 -11 -11
-11 -2 0 6 -7 12 -16 12 -11 0 -14 5 -10 16 3 9 6 23 6 31 0 11 7 14 26 10 24
-4 25 -3 20 27 -6 33 7 66 21 52 4 -5 2 -11 -4 -13 -16 -6 -17 -30 -1 -35 8
-3 7 -14 -5 -38 -19 -38 -20 -40 -9 -40 8 0 32 49 32 67 0 7 7 13 15 13 8 0
15 5 15 10 0 14 -13 13 -28 -2 -9 -9 -12 -8 -12 5 0 17 33 40 44 30 3 -3 6 1
6 11 0 9 4 15 9 11 13 -8 34 33 27 51 -3 9 -1 12 4 9 6 -3 10 1 10 9 0 9 7 16
15 16 8 0 15 -4 15 -10z m-60 -43 c0 -18 -2 -19 -10 -7 -13 20 -13 43 0 35 6
-3 10 -16 10 -28z m-7346 -32 c6 -18 -2 -44 -21 -63 -11 -11 -13 -8 -12 15 3
58 19 83 33 48z m6535 -70 c0 -5 -4 -3 -9 5 -5 8 -9 22 -9 30 0 16 17 -16 18
-35z m-6513 10 c-4 -14 -2 -25 3 -25 5 0 11 7 13 16 2 10 18 -6 44 -44 30 -43
39 -64 32 -73 -8 -12 -9 -11 -6 1 5 18 -41 72 -54 63 -6 -3 -7 3 -4 15 6 19 3
20 -36 17 -24 -1 -37 -1 -30 2 6 3 12 9 12 14 0 9 21 38 29 39 2 0 0 -11 -3
-25z m6490 -21 c-3 -8 -1 -14 4 -14 6 0 10 -4 10 -10 0 -5 -13 -10 -30 -10
-31 0 -38 14 -19 40 9 13 10 12 5 -2 -3 -12 -1 -15 9 -11 10 3 13 14 9 32 -5
22 -4 24 6 8 7 -10 9 -25 6 -33z m174 6 c0 -16 -7 -20 -30 -20 -33 0 -36 4
-17 25 18 21 47 18 47 -5z m-70 -10 c0 -5 -16 -10 -35 -10 -19 0 -35 5 -35 10
0 6 16 10 35 10 19 0 35 -4 35 -10z m-7295 -20 c8 -14 -6 -61 -17 -54 -5 3 -4
12 3 20 20 25 0 29 -21 4 -24 -27 -27 -14 -4 18 16 24 29 28 39 12z m7127 -28
c-6 -2 -8 -11 -5 -20 4 -14 3 -14 -5 -3 -7 10 -6 22 1 39 11 23 12 23 16 7 2
-11 -1 -21 -7 -23z m-6373 -21 c9 -16 8 -18 -8 -14 -12 3 -17 11 -14 19 7 18
10 18 22 -5z m6361 -47 c0 -12 -5 -26 -11 -30 -7 -4 -9 0 -5 14 4 11 2 23 -3
26 -5 4 -12 -3 -16 -14 -3 -11 -13 -20 -21 -20 -23 0 -16 -20 9 -21 21 -2 21
-2 1 -6 -22 -4 -40 -55 -27 -76 3 -5 1 -7 -5 -4 -17 11 -42 -4 -42 -25 0 -18
-1 -18 -16 -3 -16 15 -20 14 -55 -21 -70 -68 -41 -22 41 66 8 8 27 32 42 52
15 20 41 49 57 66 17 16 27 33 23 38 -4 5 1 2 11 -5 9 -7 17 -24 17 -37z
m-7140 25 c0 -5 4 -7 10 -4 6 3 7 -1 4 -10 -4 -9 -7 -15 -8 -13 -1 2 -8 11
-15 21 -9 11 -10 17 -2 17 6 0 11 -5 11 -11z m21 -42 c-10 -9 -11 -8 -5 6 3
10 9 15 12 12 3 -3 0 -11 -7 -18z m822 6 c-5 -12 -2 -15 10 -10 15 6 16 3 7
-13 -15 -28 -26 -25 -24 8 2 30 2 32 9 32 2 0 1 -8 -2 -17z m-763 -92 c0 -11
-4 -9 -15 5 -8 10 -15 25 -15 33 0 11 4 9 15 -5 8 -10 15 -25 15 -33z m20 32
c1 -17 1 -17 14 0 7 9 21 17 31 17 13 0 16 -6 12 -27 -6 -33 1 -53 18 -53 10
0 13 -17 12 -65 -1 -36 -3 -65 -4 -65 -2 0 -10 11 -19 25 -14 22 -14 27 0 56
19 37 19 39 7 39 -5 0 -12 -11 -15 -25 -8 -32 -19 -32 -46 2 -15 19 -19 35
-15 54 3 15 1 30 -4 34 -14 8 -14 25 -1 25 6 0 10 -8 10 -17z m843 -54 c-16
-16 -30 -4 -30 27 l0 26 20 -21 c16 -15 18 -24 10 -32z m-63 2 c0 -5 -6 -11
-12 -14 -9 -3 -6 -11 10 -24 29 -27 20 -53 -19 -53 -26 0 -29 4 -29 30 0 17 4
30 9 30 5 0 13 9 16 20 6 20 25 28 25 11z m88 -8 c-4 -12 28 -54 35 -47 3 3 3
-3 0 -15 -3 -12 -1 -21 6 -21 6 0 11 -11 11 -25 0 -19 5 -25 23 -25 22 -1 22
-1 2 -16 -20 -15 -19 -16 5 -14 44 4 50 1 50 -25 0 -19 5 -25 23 -25 21 -1 22
-1 3 -15 -24 -18 -40 -20 -30 -3 5 8 2 9 -10 5 -12 -5 -20 1 -28 18 -8 18 -19
25 -40 25 -32 0 -35 7 -10 27 16 14 16 14 -2 9 -15 -5 -17 -2 -12 20 4 14 2
32 -4 40 -7 7 -9 18 -5 23 3 6 -6 13 -20 17 -24 6 -34 32 -18 47 9 9 24 9 21
0z m-39 -38 c25 -37 23 -57 -4 -35 -8 7 -15 21 -15 31 0 11 -4 19 -10 19 -5 0
-10 5 -10 10 0 19 15 9 39 -25z m6058 -13 c-2 -21 -7 -27 -27 -29 l-25 -1 23
18 c12 10 22 23 22 29 0 6 2 11 5 11 2 0 3 -12 2 -28z m-5824 -165 c-5 -9
-143 129 -143 144 0 6 33 -23 73 -63 41 -40 72 -76 70 -81z m5716 86 c-8 -10
-18 -21 -24 -25 -6 -5 -4 -8 4 -8 8 0 19 8 26 17 11 15 13 13 20 -16 8 -36 -1
-54 -15 -31 -8 12 -10 13 -10 1 0 -9 -7 -6 -19 8 -12 14 -25 20 -33 15 -7 -4
1 7 17 24 32 33 56 43 34 15z m-6626 -24 c23 -40 16 -48 -12 -13 -11 15 -21
24 -21 20 0 -8 23 -49 31 -56 3 -3 11 -16 18 -30 10 -21 8 -20 -11 5 -12 17
-33 40 -45 53 -19 19 -21 26 -10 37 19 22 30 18 50 -16z m6567 -38 c0 -5 -7
-11 -15 -15 -8 -3 -15 -11 -15 -18 0 -9 3 -9 10 2 9 13 11 13 20 0 10 -13 11
-13 9 0 -4 37 2 44 16 20 21 -37 19 -41 -26 -36 -51 6 -55 10 -32 34 20 22 33
27 33 13z m-5641 -48 c-12 -15 -12 -16 5 -10 11 4 22 4 25 0 3 -4 22 -22 42
-39 l36 -31 -53 1 c-44 1 -54 4 -54 19 0 9 -5 17 -11 17 -6 0 -9 -9 -6 -20 3
-11 1 -20 -4 -20 -14 0 -3 81 12 91 21 13 23 11 8 -8z m-835 -16 c14 -10 15
-17 7 -40 -14 -36 -14 -37 2 -37 7 0 23 -14 36 -31 13 -17 25 -28 28 -25 4 3
-2 15 -12 27 -17 17 -17 22 -5 29 22 14 28 12 26 -7 0 -10 8 -19 19 -21 11 -2
23 -9 27 -16 5 -8 8 -7 8 2 0 23 26 -10 27 -36 2 -20 0 -21 -13 -7 -28 28 -38
15 -11 -13 29 -30 37 -53 12 -32 -9 7 -19 10 -22 6 -4 -4 -1 -11 7 -16 8 -6
10 -10 4 -10 -17 0 -37 27 -29 40 6 10 -17 40 -31 40 -5 0 -3 -5 4 -12 7 -7
12 -17 12 -22 0 -6 -7 -2 -15 8 -8 11 -35 41 -60 68 -24 26 -52 59 -60 72 -26
39 0 61 39 33z m96 3 c0 -5 -16 -10 -35 -10 -19 0 -35 5 -35 10 0 6 16 10 35
10 19 0 35 -4 35 -10z m70 -10 c0 -23 -25 -27 -46 -6 -21 21 -18 26 16 26 23
0 30 -4 30 -20z m7082 -2 c-4 -17 -2 -20 12 -15 10 4 22 7 27 7 5 0 9 5 9 11
0 5 -4 8 -9 4 -5 -3 -12 -1 -16 5 -8 13 15 13 35 0 12 -9 9 -15 -20 -40 -19
-16 -30 -30 -25 -30 6 0 6 -3 0 -8 -6 -4 -21 -20 -33 -36 -14 -18 -22 -23 -22
-13 0 8 6 18 13 21 9 5 9 7 -1 12 -16 8 -5 25 12 18 10 -4 12 2 9 21 -4 20 -8
23 -19 14 -11 -9 -14 -8 -14 4 0 28 12 47 30 47 14 0 17 -5 12 -22z m-863 -15
c-12 -14 -12 -16 1 -11 11 4 16 -2 17 -23 3 -34 -9 -37 -37 -9 -19 19 -19 21
-2 39 21 24 40 27 21 4z m-54 -44 c-4 -5 -4 -22 0 -37 5 -20 8 -23 16 -11 5 7
9 10 9 4 0 -21 -16 -32 -48 -32 -20 0 -28 3 -20 8 7 4 9 11 5 15 -3 4 -15 1
-24 -6 -10 -8 0 5 22 28 40 42 52 51 40 31z m-5325 -51 c0 -4 -8 -12 -18 -17
-14 -7 -19 -6 -19 4 0 8 4 12 9 9 13 -8 10 10 -4 25 -10 11 -8 10 10 0 12 -8
22 -17 22 -21z m5236 -58 c1 -32 -3 -40 -17 -40 -12 0 -16 5 -13 15 5 12 2 14
-12 8 -17 -6 -17 -5 -5 11 8 9 21 14 29 11 9 -3 12 0 9 9 -4 11 0 26 8 26 0 0
1 -18 1 -40z m922 -15 c-60 -66 -64 -55 -4 13 23 26 11 30 -16 5 -11 -9 -18
-11 -18 -5 0 7 -7 12 -15 12 -8 0 -15 5 -15 10 0 6 24 10 54 10 l55 0 -41 -45z
m-6009 -48 c46 -37 107 -83 136 -102 44 -28 52 -37 48 -58 -5 -25 19 -58 40
-56 9 0 8 2 0 6 -7 2 -13 9 -13 14 0 5 9 4 20 -3 14 -9 16 -14 7 -20 -18 -11
-67 -10 -67 2 0 6 -9 10 -20 10 -15 0 -20 7 -20 29 0 27 -4 30 -37 34 -21 2
-11 3 21 1 58 -4 59 -4 40 15 -10 10 -25 16 -31 13 -7 -2 -13 0 -13 6 0 5 -12
13 -26 16 -34 9 -59 32 -41 39 7 3 4 6 -6 6 -10 1 -27 -4 -38 -9 -15 -9 -23
-7 -36 5 -14 14 -14 18 -2 25 8 6 18 5 23 0 6 -6 14 -10 20 -10 5 0 -3 14 -19
30 -35 36 -41 37 -49 5 -4 -14 -11 -25 -16 -25 -17 0 -11 38 7 49 10 5 14 13
10 17 -5 5 -12 2 -17 -6 -5 -8 -12 -11 -17 -7 -4 5 -1 12 7 17 8 5 11 12 7 17
-10 9 -28 -18 -23 -33 2 -5 -2 -21 -10 -35 -8 -14 -13 -18 -14 -9 0 10 -3 11
-8 3 -4 -6 -8 11 -9 38 l-1 49 31 -2 c23 -2 57 -23 116 -71z m5910 11 c-10 -6
-7 -7 11 -2 l25 6 -24 -26 c-28 -29 -18 -35 13 -8 20 16 20 16 6 -3 -8 -10
-23 -27 -32 -37 -10 -10 -18 -24 -18 -30 0 -9 -3 -8 -10 2 -7 12 -12 12 -22 2
-9 -9 -9 -12 1 -12 7 0 -2 -18 -20 -41 -18 -23 -35 -37 -37 -30 -2 6 -8 11
-14 11 -6 0 -8 -6 -5 -14 7 -18 -11 -36 -29 -29 -8 3 -14 0 -14 -6 0 -6 5 -11
12 -11 6 0 3 -9 -7 -20 -15 -16 -21 -18 -33 -7 -13 10 -15 9 -9 -5 8 -22 3
-23 -18 -2 -9 9 -19 13 -23 9 -4 -3 1 -11 11 -16 21 -12 23 -31 2 -23 -8 4
-15 1 -15 -5 0 -6 4 -11 9 -11 5 0 -16 -24 -47 -54 -31 -30 -59 -53 -61 -51
-2 3 2 11 8 19 7 8 10 20 6 25 -3 6 0 8 8 5 16 -6 44 23 32 34 -4 4 -10 1 -12
-5 -6 -17 -20 -16 -26 0 -4 10 6 13 36 13 l42 -1 0 40 0 40 41 -1 41 -1 -1 41
-1 41 42 -1 c39 -2 42 0 37 20 -6 26 37 72 60 63 20 -8 24 9 19 72 -4 50 -3
52 13 36 15 -14 15 -18 3 -27z m-6072 -10 c-3 -7 -5 -2 -5 12 0 14 2 19 5 13
2 -7 2 -19 0 -25z m5202 21 c25 -9 31 -16 31 -40 0 -16 5 -29 10 -29 6 0 10
-4 10 -10 0 -18 -29 -10 -35 10 -4 13 -15 20 -30 20 -19 0 -23 -4 -18 -17 7
-17 6 -17 -11 0 -9 9 -22 17 -27 17 -5 0 -9 5 -9 11 0 6 9 8 22 3 19 -6 21 -5
11 8 -10 11 -10 17 -1 26 14 14 9 14 47 1z m-5968 -35 c10 -9 14 -27 13 -49
-3 -32 -2 -34 12 -20 9 8 30 15 47 14 18 0 28 -2 22 -5 -12 -5 -12 -81 0 -92
5 -4 5 -1 1 6 -6 10 -1 11 21 6 45 -11 60 -29 56 -71 -2 -26 0 -33 7 -23 6 10
29 15 69 17 55 2 61 1 61 -17 0 -11 -6 -20 -14 -20 -8 0 -17 -7 -20 -16 -9
-24 -7 -31 4 -14 8 13 10 12 10 -2 0 -10 -4 -18 -10 -18 -5 0 -10 -4 -10 -10
0 -5 7 -10 15 -10 7 0 19 -8 24 -17 9 -16 12 -16 22 -3 9 13 10 12 5 -3 -3
-10 -6 -23 -6 -29 0 -10 -21 7 -96 80 -25 23 -48 42 -53 42 -18 0 -35 34 -33
61 3 22 -1 29 -13 29 -15 0 -15 -3 -5 -15 7 -9 11 -18 8 -21 -3 -2 -39 27 -80
65 -67 63 -74 73 -70 100 3 25 1 31 -14 31 -14 0 -15 -3 -6 -12 26 -26 10 -27
-24 -2 -25 20 -32 29 -22 35 16 10 58 1 79 -17z m5900 -33 l23 -18 -40 2 c-58
3 -59 4 -38 20 25 19 27 19 55 -4z m-81 -31 c0 -6 -11 -15 -25 -20 -14 -5 -25
-14 -25 -20 0 -5 -8 -11 -17 -11 -16 -1 -16 -2 0 -6 14 -4 17 -11 13 -29 -5
-20 -3 -24 15 -24 19 0 49 -21 49 -34 0 -3 -15 -6 -33 -6 -27 0 -36 6 -46 27
-9 19 -9 29 -2 31 18 6 13 19 -9 25 -27 7 -67 -32 -48 -46 10 -7 10 -10 -1
-14 -9 -4 -10 -8 -2 -12 6 -4 -5 -7 -24 -7 -21 0 -30 3 -22 8 9 6 8 8 -3 8 -8
-1 -24 -7 -34 -15 -20 -15 -20 -15 0 -16 15 0 14 -2 -6 -10 -14 -6 -35 -20
-48 -32 -20 -18 -22 -19 -16 -3 6 16 5 17 -14 5 -15 -10 -18 -16 -9 -21 7 -4
8 -8 2 -8 -31 0 -32 17 -2 34 46 27 171 110 177 118 5 6 120 85 128 87 1 1 2
-4 2 -9z m36 -30 c1 -24 -2 -28 -12 -19 -8 6 -22 8 -31 4 -16 -7 -15 -9 7 -16
22 -7 22 -7 -8 -6 -45 2 -51 15 -13 30 18 7 31 19 31 29 0 30 25 9 26 -22z
m834 36 c0 -2 -3 -11 -6 -20 -9 -23 -24 -20 -24 4 0 11 7 20 15 20 8 0 15 -2
15 -4z m-5670 -46 c0 -5 -9 -10 -20 -10 -11 0 -20 5 -20 10 0 6 9 10 20 10 11
0 20 -4 20 -10z m230 -110 c19 -15 45 -30 58 -34 24 -8 29 -21 10 -30 -7 -3 0
-3 17 0 16 3 26 2 22 -2 -4 -4 -21 -9 -38 -10 -23 -2 -28 1 -20 9 17 17 13 27
-10 27 -11 0 -33 14 -47 30 -15 17 -31 30 -37 30 -5 0 -23 12 -40 26 l-30 26
40 -23 c22 -12 56 -34 75 -49z m-830 -30 c0 -23 -4 -30 -20 -30 -11 0 -20 6
-20 14 0 8 -3 21 -6 30 -5 12 0 16 20 16 22 0 26 -4 26 -30z m6130 20 c0 -5
-11 -10 -25 -10 -14 0 -25 5 -25 10 0 6 11 10 25 10 14 0 25 -4 25 -10z
m-5310 -36 c0 -8 8 -14 17 -14 13 0 14 -3 6 -11 -9 -9 -16 -8 -27 4 -17 17
-22 52 -6 42 6 -3 10 -13 10 -21z m4380 -4 c0 -5 -9 -10 -20 -10 -11 0 -20 5
-20 10 0 6 9 10 20 10 11 0 20 -4 20 -10z m-4207 -81 l-25 -16 40 1 c34 0 39
3 29 15 -8 9 -1 8 18 -4 17 -11 31 -19 32 -20 1 -1 -25 -1 -59 0 -66 0 -88 17
-46 35 20 9 19 9 -8 5 -24 -5 -33 -2 -38 11 -11 28 15 34 50 11 l32 -22 -25
-16z m4051 48 c-2 -7 -26 -24 -52 -36 -42 -21 -45 -25 -27 -32 16 -8 15 -8 -7
-4 -22 4 -26 2 -22 -10 4 -8 2 -15 -4 -15 -6 0 -12 6 -14 12 -5 15 -24 -3 -46
-40 -9 -16 -9 -22 0 -22 6 0 9 -2 6 -5 -3 -4 -18 -3 -33 1 l-28 7 27 14 c14 7
26 16 26 19 0 7 -44 -7 -50 -16 -3 -4 -16 -11 -30 -15 l-25 -7 22 17 c13 9 37
21 55 27 18 6 35 14 38 18 3 4 38 24 78 45 39 20 75 41 78 46 8 14 14 11 8 -4z
m119 6 c-7 -2 -19 -2 -25 0 -7 3 -2 5 12 5 14 0 19 -2 13 -5z m-5249 -18 c-4
-8 -12 -15 -20 -15 -20 0 -17 18 4 23 9 3 18 5 19 6 1 0 0 -6 -3 -14z m84 -65
c-2 -22 -7 -38 -13 -36 -5 2 -9 10 -9 19 1 8 -4 14 -10 11 -6 -2 -17 0 -25 5
-12 8 -12 11 0 25 8 8 24 15 37 16 20 0 22 -4 20 -40z m822 20 c0 -11 -4 -20
-10 -20 -5 0 -10 9 -10 20 0 11 5 20 10 20 6 0 10 -9 10 -20z m4210 5 c-10
-12 -10 -15 0 -15 8 0 11 -2 9 -5 -3 -2 -15 -1 -28 2 -23 6 -23 7 -6 20 25 18
40 17 25 -2z m50 -5 c0 -11 -4 -20 -10 -20 -5 0 -10 9 -10 20 0 11 5 20 10 20
6 0 10 -9 10 -20z m40 0 c0 -11 -4 -20 -10 -20 -5 0 -10 9 -10 20 0 11 5 20
10 20 6 0 10 -9 10 -20z m929 -33 c8 -10 2 -21 -26 -48 -21 -19 -32 -27 -26
-19 6 8 9 26 8 40 -1 14 0 28 2 33 7 11 30 8 42 -6z m-6073 -36 c33 -34 44
-39 72 -35 19 2 31 0 28 -5 -4 -5 0 -11 6 -14 7 -2 10 -8 6 -12 -5 -5 -16 -1
-26 8 -27 25 -38 21 -16 -5 l19 -22 -30 22 c-50 35 -121 102 -109 102 6 0 28
-18 50 -39z m1217 1 l55 -28 -39 0 c-39 0 -64 -13 -41 -21 19 -7 14 -23 -8
-23 -11 0 -20 -4 -20 -10 0 -5 -4 -10 -10 -10 -5 0 -10 15 -10 34 0 36 15 48
49 39 33 -8 25 5 -16 26 -59 31 -23 25 40 -7z m3659 -45 c13 -20 9 -27 -12
-27 -11 0 -20 -4 -20 -10 0 -5 -16 -10 -35 -10 -28 0 -35 4 -35 20 0 11 6 20
14 20 8 0 17 7 20 16 5 12 13 14 33 9 16 -4 31 -12 35 -18z m85 1 c9 23 23 12
23 -18 0 -20 -5 -30 -15 -30 -8 0 -15 5 -15 10 0 6 -7 10 -15 10 -17 0 -18 2
-9 25 6 13 9 14 16 3 7 -10 11 -10 15 0z m1028 -8 c3 0 3 5 -1 12 -4 7 -3 8 5
4 9 -6 9 -11 1 -21 -9 -11 -15 -11 -31 3 -24 21 -24 26 0 12 11 -5 22 -10 26
-10z m-4630 -24 c51 -25 44 -36 -21 -36 -24 0 -34 5 -34 15 0 11 7 14 25 9 33
-8 32 2 -2 20 -45 25 -18 18 32 -8z m3365 19 c0 -3 -19 -14 -42 -25 -26 -11
-35 -19 -24 -19 11 -1 17 -3 14 -6 -3 -4 -18 -3 -33 1 -27 7 -26 8 26 30 30
12 55 23 57 23 1 1 2 -1 2 -4z m1235 -14 c3 -5 2 -12 -3 -15 -5 -3 -9 1 -9 9
0 17 3 19 12 6z m-5815 -10 c0 -5 -6 -12 -12 -14 -19 -8 11 -27 31 -19 9 3 13
2 9 -3 -8 -9 34 -45 52 -45 21 0 4 24 -21 31 -21 5 -22 7 -6 14 10 4 24 2 33
-6 13 -10 17 -10 24 0 5 9 8 4 8 -13 0 -15 -6 -26 -14 -26 -8 0 -14 -7 -14
-15 0 -23 16 -18 41 15 28 35 69 41 69 10 0 -15 -7 -20 -25 -20 -14 0 -26 -4
-26 -10 -1 -5 -2 -14 -3 -19 -3 -24 -19 -22 -54 5 -20 17 -61 45 -89 64 -29
18 -53 37 -53 42 0 5 5 6 10 3 6 -3 10 -1 10 4 0 6 7 11 15 11 8 0 15 -4 15
-9z m4610 -23 c0 -5 -11 -8 -25 -8 -29 0 -32 8 -8 26 17 12 32 3 33 -18z
m-3470 2 c0 -5 -13 -10 -30 -10 -16 0 -30 5 -30 10 0 6 14 10 30 10 17 0 30
-4 30 -10z m3295 -18 c-32 -19 -63 -33 -82 -37 -6 -2 -19 -7 -28 -13 -15 -8
-14 -10 9 -16 31 -8 37 -46 7 -46 -11 0 -22 -6 -24 -12 -9 -21 -28 13 -24 40
4 21 2 22 -27 17 -17 -3 7 10 54 28 47 18 94 38 105 45 11 6 25 12 30 12 6 0
-3 -8 -20 -18z m1314 -19 c-15 -13 -31 -23 -35 -23 -5 -1 -24 -14 -42 -29 -23
-20 -40 -27 -55 -23 -19 5 -20 3 -10 -9 10 -12 7 -18 -15 -31 l-27 -16 -1 32
c0 28 3 32 19 28 13 -3 18 -1 14 6 -8 11 11 11 31 -1 8 -6 12 -1 12 13 0 12 5
18 10 15 6 -3 10 -1 10 4 0 6 -5 11 -10 11 -6 0 -3 11 7 24 15 21 26 24 68 23
l51 -2 -27 -22z m-4380 -1 c22 -10 38 -22 33 -27 -4 -4 4 -4 18 0 14 4 22 4
18 0 -7 -7 -47 -15 -92 -19 -28 -2 -30 19 -4 33 l23 12 -22 -5 c-15 -3 -23 1
-23 10 0 18 0 18 49 -4z m3061 -17 c-13 -16 -40 -21 -40 -7 0 8 42 30 49 25 2
-1 -2 -9 -9 -18z m-63 -21 c-3 -3 -12 -4 -19 -1 -8 3 -5 6 6 6 11 1 17 -2 13
-5z m73 -4 c0 -5 -4 -10 -10 -10 -5 0 -10 5 -10 10 0 6 5 10 10 10 6 0 10 -4
10 -10z m-2918 -17 c7 -6 48 -21 91 -34 63 -19 74 -25 57 -31 -24 -9 -110 -6
-110 3 0 14 -83 29 -159 29 -47 0 -81 4 -81 10 0 6 13 10 29 10 16 0 31 6 34
13 6 16 119 16 139 0z m2885 11 c-3 -3 -12 -4 -19 -1 -8 3 -5 6 6 6 11 1 17
-2 13 -5z m-4214 -11 c-7 -2 -19 -2 -25 0 -7 3 -2 5 12 5 14 0 19 -2 13 -5z
m4007 -17 c0 -8 -11 -13 -27 -12 -16 0 -44 -3 -63 -7 -20 -3 -12 2 20 12 69
24 70 24 70 7z m-4020 -5 c0 -5 -6 -12 -12 -15 -7 -4 -4 -5 7 -3 15 3 21 -1
21 -14 0 -13 -4 -15 -18 -8 -22 12 -31 26 -23 39 8 13 25 13 25 1z m4260 -1
c1 12 2 12 10 -2 18 -30 1 -48 -46 -48 -24 0 -44 3 -44 6 0 11 29 34 44 34 9
0 16 6 16 13 0 8 4 7 10 -3 9 -13 10 -13 10 0z m-270 -15 c0 -3 -10 -10 -22
-15 -16 -6 -3 -7 40 -3 39 4 62 2 62 -4 0 -13 -207 -17 -215 -4 -10 17 14 22
50 12 19 -5 35 -6 35 -1 0 5 8 11 18 13 27 7 32 7 32 2z m-2670 -15 c0 -5 10
-10 22 -10 12 0 19 -3 15 -6 -9 -9 -57 5 -57 16 0 6 5 10 10 10 6 0 10 -4 10
-10z m-1157 -26 c9 -3 17 -10 17 -16 0 -6 -6 -6 -15 2 -9 7 -29 10 -48 7 -19
-3 -39 -2 -47 3 -14 9 65 12 93 4z m1433 -10 l29 -16 -30 7 c-16 3 -34 11 -39
16 -16 15 9 11 40 -7z m2179 -3 c-3 -6 -15 -11 -25 -11 -10 0 -22 -5 -25 -10
-4 -6 -16 -8 -28 -5 -17 5 -19 4 -7 -4 13 -9 12 -11 -5 -10 -11 0 -29 4 -39 8
-15 6 -5 11 40 19 32 7 66 17 74 22 17 10 25 6 15 -9z m1495 12 c-8 -3 -22 -7
-30 -10 -8 -4 -18 -6 -21 -5 -4 1 -12 -12 -19 -28 -7 -17 -19 -30 -26 -30 -8
0 -14 -4 -14 -10 0 -13 6 -13 39 4 27 14 66 6 42 -8 -6 -4 -11 -2 -11 4 0 6
-5 8 -10 5 -6 -4 -7 -11 -4 -17 4 -6 -2 -8 -17 -3 -19 5 -21 4 -9 -4 13 -10
13 -12 0 -21 -19 -12 -37 -13 -44 -1 -4 5 3 7 14 4 11 -3 20 -1 20 5 0 5 -9
12 -20 15 -16 4 -20 14 -20 46 0 37 2 41 25 41 14 0 25 4 25 8 0 5 21 9 48 9
26 0 40 -2 32 -4z m55 -4 c-4 -5 1 -9 9 -9 9 0 16 5 16 10 0 6 6 10 13 10 14
-1 -27 -36 -73 -63 -17 -11 -30 -14 -30 -7 0 6 8 13 18 17 35 12 44 25 26 37
-13 10 -13 12 6 13 11 1 18 -2 15 -8z m-5239 -20 c5 -8 9 -8 14 1 4 7 17 9 33
4 38 -9 33 -24 -5 -19 -32 5 -32 5 -8 -7 14 -7 28 -17 32 -23 5 -6 11 -6 20 3
14 14 48 16 48 4 0 -5 -10 -14 -22 -19 -20 -9 -17 -10 19 -8 23 1 47 -1 54 -5
13 -9 4 -60 -11 -60 -5 0 -7 6 -4 13 7 18 -32 51 -51 43 -14 -5 -145 67 -145
80 0 9 19 3 26 -7z m1502 -7 c24 -11 57 -17 97 -16 75 2 145 -14 145 -32 0 -8
5 -14 10 -14 6 0 10 -4 10 -10 0 -14 -27 -12 -33 3 -4 9 -8 8 -16 -3 -14 -21
-25 -6 -12 18 10 19 7 19 -72 17 -65 -2 -92 1 -129 18 -27 11 -48 24 -48 29 0
11 6 10 48 -10z m3712 8 c0 -5 -8 -10 -18 -10 -10 0 -23 -5 -30 -12 -6 -6 -15
-9 -19 -5 -9 9 27 36 50 37 9 0 17 -4 17 -10z m-3645 -10 c-28 -12 -37 -12
-30 0 3 6 16 10 28 9 21 0 21 -1 2 -9z m-1391 -17 c4 -9 1 -20 -6 -25 -26 -16
-35 -7 -22 26 8 21 20 20 28 -1z m1443 11 c-3 -3 -12 -4 -19 -1 -8 3 -5 6 6 6
11 1 17 -2 13 -5z m2063 -4 c-13 -9 -13 -11 0 -20 11 -7 4 -10 -28 -10 -37 0
-41 2 -30 14 13 13 37 22 63 25 6 0 3 -4 -5 -9z m-2210 -10 c0 -5 10 -10 22
-10 12 0 19 -3 15 -6 -9 -9 -57 5 -57 16 0 6 5 10 10 10 6 0 10 -4 10 -10z
m2090 -5 c43 -14 43 -15 8 -10 -28 4 -39 2 -47 -12 -10 -17 -10 -17 -11 0 0 9
5 17 12 17 6 0 9 2 7 5 -3 2 -22 -1 -42 -7 -26 -8 -37 -17 -37 -31 0 -19 -5
-20 -80 -14 -44 4 -80 3 -80 -1 0 -5 -28 -9 -62 -10 -115 -2 -128 -3 -123 -13
8 -12 72 -12 79 0 10 15 148 9 171 -7 l20 -14 -20 7 c-29 11 -75 17 -53 8 10
-5 -43 -8 -117 -9 -74 0 -135 3 -135 7 0 4 -8 10 -17 13 -10 2 -2 2 18 -1 22
-3 40 0 44 7 4 7 18 9 36 5 18 -4 29 -3 29 4 0 7 22 11 54 11 30 0 57 4 60 8
3 5 27 7 53 6 26 -1 41 1 33 4 -8 3 21 13 65 22 44 10 82 18 85 18 3 1 25 -5
50 -13z m-1744 -26 c3 -6 17 -8 29 -5 13 3 27 2 30 -4 7 -11 -13 -13 -68 -3
-26 4 -34 9 -25 14 18 12 26 11 34 -2z m1814 -19 c0 -5 16 -10 35 -10 39 0 42
-4 21 -26 -16 -16 -96 -19 -96 -4 0 6 5 10 10 10 6 0 10 9 10 20 0 11 5 20 10
20 6 0 10 -4 10 -10z m-1715 -10 l-30 -8 33 -1 c18 0 31 -5 28 -10 -3 -5 17
-8 44 -8 28 0 50 4 50 9 0 4 -8 8 -17 9 -12 0 -13 2 -5 6 7 3 18 0 26 -6 7 -6
26 -11 42 -11 51 0 125 -8 131 -13 8 -9 -270 -3 -284 6 -7 4 -30 5 -50 2 -28
-4 -33 -3 -18 4 l20 10 -20 1 c-17 2 -16 3 5 10 14 4 36 8 50 8 22 0 22 -1 -5
-8z m-1765 -10 c8 -5 11 -10 5 -10 -5 0 -17 5 -25 10 -8 5 -10 10 -5 10 6 0
17 -5 25 -10z m1675 0 c18 -8 18 -9 -5 -9 -14 0 -32 4 -40 9 -12 8 -12 10 5 9
11 0 29 -4 40 -9z m168 3 c-7 -2 -19 -2 -25 0 -7 3 -2 5 12 5 14 0 19 -2 13
-5z m-383 -23 c0 -5 -4 -10 -10 -10 -5 0 -10 5 -10 10 0 6 5 10 10 10 6 0 10
-4 10 -10z m80 0 c0 -5 -13 -10 -30 -10 -16 0 -30 5 -30 10 0 6 14 10 30 10
17 0 30 -4 30 -10z m1265 0 c-11 -5 -38 -8 -60 -8 l-40 1 40 7 c22 4 49 7 60
8 l20 1 -20 -9z m-1158 -6 c-3 -3 -12 -4 -19 -1 -8 3 -5 6 6 6 11 1 17 -2 13
-5z m540 0 c-3 -3 -12 -4 -19 -1 -8 3 -5 6 6 6 11 1 17 -2 13 -5z m481 -1
c-10 -2 -26 -2 -35 0 -10 3 -2 5 17 5 19 0 27 -2 18 -5z m205 0 c-7 -2 -19 -2
-25 0 -7 3 -2 5 12 5 14 0 19 -2 13 -5z m-2798 -13 c-8 -14 8 -13 22 1 9 9 19
6 41 -10 34 -24 62 -27 63 -8 0 10 2 10 6 0 2 -7 16 -13 29 -13 13 0 24 -4 24
-10 0 -5 -4 -10 -10 -10 -5 0 -10 -8 -10 -17 -1 -16 -2 -16 -15 1 -11 15 -15
16 -16 5 0 -10 -2 -10 -6 -1 -2 6 -9 12 -14 12 -5 0 -27 11 -49 25 -26 16 -40
21 -40 13 0 -7 26 -26 58 -43 31 -16 69 -38 84 -47 28 -20 73 -25 63 -8 -4 6
-15 8 -26 5 -11 -4 -19 -2 -19 4 0 6 0 14 0 19 0 4 18 7 40 8 39 1 53 -9 28
-19 -10 -4 -9 -8 2 -16 13 -9 13 -11 -2 -11 -10 0 -18 -4 -18 -10 0 -19 -24
-10 -141 57 -115 66 -137 83 -103 83 8 0 12 -4 9 -10z m95 0 c8 -5 11 -10 5
-10 -5 0 -17 5 -25 10 -8 5 -10 10 -5 10 6 0 17 -5 25 -10z m4693 3 c8 -5 -96
-73 -111 -73 -4 0 18 16 48 35 63 41 56 46 -14 10 -27 -14 -60 -25 -74 -25
-14 0 -22 -5 -19 -12 2 -7 14 -13 26 -12 28 1 27 0 -14 -25 -33 -19 -39 -20
-70 -6 -19 7 -35 16 -35 18 0 7 55 -6 61 -14 3 -5 14 -2 25 7 18 14 18 15 -6
8 -20 -5 -23 -4 -12 7 15 16 16 29 2 29 -5 0 -10 -7 -10 -15 0 -21 -27 -19
-40 3 -8 12 -13 13 -16 5 -9 -20 -24 -15 -24 7 0 17 7 20 40 20 22 0 40 5 40
10 0 6 9 10 20 10 11 0 20 -4 20 -10 0 -15 44 -12 66 6 18 15 18 15 -5 8 -13
-3 -21 -2 -18 3 6 10 106 15 120 6z m-214 -127 c-8 -7 -115 -62 -133 -69 -16
-6 -17 -5 -6 8 7 8 20 15 29 15 14 0 14 2 1 11 -12 8 -10 9 9 4 13 -4 26 -3
30 1 9 14 44 33 60 33 8 1 12 -1 10 -3z m-4314 -26 c-3 -5 -11 -10 -16 -10 -6
0 -7 5 -4 10 3 6 11 10 16 10 6 0 7 -4 4 -10z m35 -11 c-12 -8 -9 -9 10 -4 14
4 39 8 55 10 20 1 22 1 5 -2 -14 -3 -33 -11 -42 -20 -15 -13 -19 -13 -37 -1
-22 16 -18 28 8 28 14 0 14 -2 1 -11z m4140 2 c0 -5 -7 -14 -15 -21 -11 -9
-21 -9 -45 1 -16 8 -30 16 -30 19 0 3 20 7 45 8 25 1 45 -2 45 -7z m-4010 -7
c0 -15 -29 -32 -51 -29 -13 1 -17 0 -7 -2 9 -2 19 -10 22 -18 4 -12 -1 -11
-29 2 -39 19 -29 42 17 35 16 -3 28 0 28 7 0 6 5 11 10 11 6 0 10 -3 10 -6z
m80 -33 c0 -34 -12 -45 -40 -36 -23 7 -27 45 -5 45 8 0 15 5 15 10 0 6 7 10
15 10 10 0 15 -10 15 -29z m3720 18 c0 -8 23 -10 70 -7 64 3 90 -3 58 -15 -7
-2 -9 -8 -5 -13 4 -4 17 -2 28 5 12 7 23 10 26 8 4 -5 -35 -31 -48 -32 -3 0
-25 -9 -50 -21 -110 -52 -115 -54 -116 -31 -2 14 1 17 9 9 6 -6 17 -8 25 -5
11 4 10 8 -4 19 -17 13 -17 13 0 14 9 0 17 -4 17 -10 0 -16 20 -12 47 10 14
11 21 20 15 20 -6 0 -14 -4 -17 -10 -3 -5 -14 -10 -23 -10 -15 0 -15 2 -2 10
12 8 10 10 -8 10 -13 0 -32 -5 -43 -10 -17 -10 -19 -7 -19 30 0 33 3 40 20 40
11 0 20 -5 20 -11z m-3790 -39 c0 -4 -6 -10 -14 -13 -10 -4 -12 0 -9 14 5 18
23 18 23 -1z m32 -31 c15 -8 22 -8 27 0 5 8 17 3 36 -13 15 -13 34 -22 42 -19
7 3 13 1 13 -5 0 -18 -22 -19 -59 -2 -20 9 -52 24 -71 33 -19 9 -29 16 -22 16
7 1 23 -4 34 -10z m118 -9 c0 -5 -9 -10 -20 -10 -11 0 -20 5 -20 10 0 6 9 10
20 10 11 0 20 -4 20 -10z m60 -66 c23 -9 44 -14 47 -10 3 3 -5 10 -18 15 -20
7 -18 9 17 7 23 0 40 -4 37 -8 -2 -5 1 -8 6 -8 6 0 11 -5 11 -11 0 -6 -9 -8
-21 -4 -15 5 -19 4 -14 -5 4 -7 17 -9 31 -6 16 4 24 2 25 -6 0 -10 2 -10 6 0
2 6 16 12 29 12 18 0 24 -5 24 -22 0 -20 6 -23 43 -25 23 -1 59 -4 80 -8 33
-7 37 -10 37 -39 0 -17 -4 -26 -8 -20 -4 6 -25 15 -47 19 -31 6 -36 9 -21 14
17 6 15 9 -13 21 -17 7 -34 10 -38 6 -3 -3 1 -6 10 -6 10 0 17 -5 17 -11 0 -7
-7 -8 -17 -4 -10 4 -38 14 -63 23 -25 8 -48 20 -52 26 -4 6 -8 8 -8 4 0 -4
-24 2 -52 14 -29 11 -69 27 -88 34 -19 7 -27 13 -18 14 10 0 36 -7 58 -16z
m280 6 c0 -5 -4 -10 -10 -10 -5 0 -10 5 -10 10 0 6 5 10 10 10 6 0 10 -4 10
-10z m2940 0 c0 -5 9 -10 20 -10 11 0 20 4 20 9 0 5 54 9 124 8 69 -1 122 -5
118 -8 -4 -3 -38 -17 -77 -31 -38 -14 -79 -29 -90 -34 -18 -7 -18 -6 -6 9 7 9
22 17 32 17 11 0 19 5 19 10 0 6 -11 8 -27 4 -27 -6 -27 -6 -8 9 17 14 18 16
3 17 -9 0 -20 -5 -23 -10 -3 -6 -17 -7 -30 -4 -29 7 -55 -15 -55 -46 0 -19 4
-20 38 -15 20 3 -3 -8 -53 -25 -120 -41 -187 -43 -156 -6 9 11 9 15 -1 19 -7
2 -10 8 -5 12 4 5 13 3 19 -3 7 -7 28 -11 48 -11 l35 1 -30 8 c-40 10 -1 13
46 3 34 -6 34 -6 -26 -25 -33 -10 -44 -16 -26 -13 57 9 117 27 104 32 -7 3
-13 16 -13 29 0 17 -6 24 -20 24 -11 0 -20 5 -20 10 0 6 -11 10 -25 10 -14 0
-25 5 -25 10 0 6 20 10 45 10 25 0 45 -4 45 -10z m-2903 -76 c-3 -3 -12 -4
-19 -1 -8 3 -5 6 6 6 11 1 17 -2 13 -5z m2753 -74 c-8 -5 -19 -10 -25 -10 -5
0 -3 5 5 10 8 5 20 10 25 10 6 0 3 -5 -5 -10z m-2540 -12 c0 -10 10 -9 55 7
11 3 7 -1 -8 -10 -17 -10 -40 -14 -55 -11 -22 4 -23 4 -7 -3 42 -19 61 -24 86
-22 17 1 29 -4 33 -14 5 -14 2 -16 -11 -10 -10 4 -31 9 -46 11 -16 2 -46 13
-67 25 -23 13 -47 19 -60 16 -12 -3 -35 0 -51 7 -27 11 -22 12 51 13 48 1 80
-3 80 -9z m113 -13 c-3 -8 0 -15 6 -15 6 0 11 -5 11 -12 0 -9 -3 -9 -12 0 -7
7 -28 12 -47 13 l-36 1 33 9 c17 5 32 14 32 20 0 6 4 8 10 4 5 -3 7 -12 3 -20z
m87 15 c0 -5 -16 -10 -35 -10 -19 0 -35 5 -35 10 0 6 16 10 35 10 19 0 35 -4
35 -10z m250 0 c0 -5 -13 -10 -30 -10 -16 0 -30 5 -30 10 0 6 14 10 30 10 17
0 30 -4 30 -10z m1600 0 c0 -5 -18 -10 -40 -10 -22 0 -40 5 -40 10 0 6 18 10
40 10 22 0 40 -4 40 -10z m160 0 c0 -5 -16 -10 -35 -10 -19 0 -35 -4 -35 -10
0 -5 -4 -10 -10 -10 -5 0 -10 9 -10 20 0 17 7 20 45 20 25 0 45 -4 45 -10z
m88 -19 l37 1 -32 9 c-18 5 -33 11 -33 12 0 1 20 2 45 3 27 1 42 -3 38 -9 -4
-7 1 -8 13 -3 36 15 92 18 110 7 15 -8 8 -10 -31 -6 -39 3 -43 2 -20 -4 l30
-9 -30 -3 c-16 -1 -43 -2 -60 -1 -23 2 -26 0 -15 -8 10 -7 -4 -8 -47 -4 -44 5
-67 3 -78 -6 -10 -8 -15 -9 -15 -1 0 6 5 11 11 11 6 0 9 6 6 14 -8 21 3 27 20
11 8 -8 31 -15 51 -14z m-2008 -11 c0 -16 -7 -20 -30 -20 -33 0 -36 4 -17 25
18 21 47 18 47 -5z m1820 0 c0 -16 -7 -20 -30 -20 -16 0 -30 5 -30 10 0 6 11
10 25 10 14 0 25 5 25 10 0 6 2 10 5 10 3 0 5 -9 5 -20z m190 -18 c0 -4 -8 -8
-17 -8 -10 -1 -26 -5 -36 -9 -13 -5 -16 -4 -11 9 6 16 64 24 64 8z m-361 -23
c14 -18 20 -19 43 -8 15 7 34 8 45 4 14 -6 7 -10 -27 -16 -64 -11 -110 -1
-110 22 0 25 28 24 49 -2z m-1719 -15 c36 -9 91 -15 123 -15 34 1 57 -2 57 -8
0 -6 9 -11 19 -11 11 0 23 -5 26 -10 5 -7 -3 -8 -22 -3 -15 4 -39 7 -52 6 -18
-1 -21 1 -10 9 10 6 5 7 -16 3 -18 -3 -69 5 -125 19 -52 13 -88 24 -80 25 8 0
44 -7 80 -15z m205 7 c21 -1 26 -4 16 -10 -11 -7 -11 -10 0 -15 8 -3 3 -3 -11
1 -14 3 -52 7 -85 9 -33 1 -73 6 -90 11 -23 8 -11 9 55 8 47 -1 99 -3 115 -4z
m1430 -1 c-28 -12 -45 -12 -45 0 0 6 15 10 33 9 27 0 29 -2 12 -9z m313 -2
c-16 -5 -34 -6 -43 -1 -10 6 -2 9 28 10 38 1 40 0 15 -9z m-85 -5 c-7 -2 -19
-2 -25 0 -7 3 -2 5 12 5 14 0 19 -2 13 -5z m-98 -16 l60 1 -50 -9 c-136 -26
-149 -27 -167 -14 -16 10 -10 12 34 9 48 -3 50 -3 21 6 -45 14 -42 24 5 14 20
-5 64 -8 97 -7z m-1235 -57 c-23 -7 -23 -8 -3 -9 12 -1 25 4 28 9 9 14 72 12
78 -2 4 -9 8 -10 14 -3 5 6 92 12 218 13 177 3 213 1 230 -12 12 -9 15 -15 7
-16 -7 0 -10 -4 -7 -10 4 -7 -55 -9 -172 -8 l-178 2 158 3 c132 3 157 6 157
19 0 11 -8 14 -32 9 -18 -3 -89 -8 -158 -10 -69 -3 -156 -8 -194 -10 -57 -4
-67 -2 -62 10 3 9 0 15 -10 15 -9 0 -12 -5 -8 -11 5 -9 -14 -10 -74 -5 -123
11 -147 22 -51 23 54 0 75 -2 59 -7z m853 -7 c-9 -8 -24 -10 -33 -6 -8 4 -64
8 -123 9 -60 1 -112 5 -115 9 -4 4 60 5 141 4 124 -3 145 -6 130 -16z m57 7
c8 -5 11 -10 5 -10 -5 0 -17 5 -25 10 -8 5 -10 10 -5 10 6 0 17 -5 25 -10z
m53 3 c-7 -2 -19 -2 -25 0 -7 3 -2 5 12 5 14 0 19 -2 13 -5z m44 1 c-3 -3 -12
-4 -19 -1 -8 3 -5 6 6 6 11 1 17 -2 13 -5z m-229 -19 c-10 -10 -98 -14 -138
-7 -39 7 -32 8 48 9 52 1 92 0 90 -2z"/>
<path d="M7328 11043 c6 -2 18 -2 25 0 6 3 1 5 -13 5 -14 0 -19 -2 -12 -5z"/>
<path d="M7208 11033 c6 -2 18 -2 25 0 6 3 1 5 -13 5 -14 0 -19 -2 -12 -5z"/>
<path d="M7383 11033 c9 -2 23 -2 30 0 6 3 -1 5 -18 5 -16 0 -22 -2 -12 -5z"/>
<path d="M6128 11033 c6 -2 18 -2 25 0 6 3 1 5 -13 5 -14 0 -19 -2 -12 -5z"/>
<path d="M5613 10953 c9 -2 23 -2 30 0 6 3 -1 5 -18 5 -16 0 -22 -2 -12 -5z"/>
<path d="M5700 10914 c0 -10 31 -36 37 -31 3 3 -2 13 -10 22 -16 15 -27 19
-27 9z"/>
<path d="M7900 10890 c0 -5 10 -10 23 -10 18 0 19 2 7 10 -19 13 -30 13 -30 0z"/>
<path d="M8020 10393 c-3 -40 -1 -68 3 -64 4 4 7 37 5 72 l-3 64 -5 -72z"/>
<path d="M8011 10294 c0 -11 3 -14 6 -6 3 7 2 16 -1 19 -3 4 -6 -2 -5 -13z"/>
<path d="M7948 10203 c7 -3 16 -2 19 1 4 3 -2 6 -13 5 -11 0 -14 -3 -6 -6z"/>
<path d="M5728 10283 c7 -3 16 -2 19 1 4 3 -2 6 -13 5 -11 0 -14 -3 -6 -6z"/>
<path d="M6225 10360 c-13 -5 -14 -9 -5 -9 8 0 24 4 35 9 13 5 14 9 5 9 -8 0
-24 -4 -35 -9z"/>
<path d="M7003 10363 c9 -2 23 -2 30 0 6 3 -1 5 -18 5 -16 0 -22 -2 -12 -5z"/>
<path d="M3950 10230 c8 -5 22 -9 30 -9 10 0 8 3 -5 9 -27 12 -43 12 -25 0z"/>
<path d="M3890 10190 c0 -5 5 -10 10 -10 6 0 10 5 10 10 0 6 -4 10 -10 10 -5
0 -10 -4 -10 -10z"/>
<path d="M3855 10170 c3 -5 10 -10 16 -10 5 0 9 5 9 10 0 6 -7 10 -16 10 -8 0
-12 -4 -9 -10z"/>
<path d="M5423 10203 c9 -2 23 -2 30 0 6 3 -1 5 -18 5 -16 0 -22 -2 -12 -5z"/>
<path d="M5144 10085 c-17 -13 -17 -14 -1 -15 9 0 17 4 17 9 0 5 10 12 23 14
20 4 20 4 1 6 -11 0 -29 -6 -40 -14z"/>
<path d="M3646 10014 c-11 -7 -17 -17 -13 -20 3 -4 14 1 23 10 21 22 15 28
-10 10z"/>
<path d="M3327 9684 c6 -15 23 -19 23 -5 0 5 -7 11 -14 14 -10 4 -13 1 -9 -9z"/>
<path d="M3253 9633 c-15 -5 -17 -23 -4 -23 5 0 11 7 15 15 3 8 4 15 3 14 -1
0 -8 -3 -14 -6z"/>
<path d="M4090 9480 c0 -5 5 -10 10 -10 6 0 10 5 10 10 0 6 -4 10 -10 10 -5 0
-10 -4 -10 -10z"/>
<path d="M4026 9394 c-4 -10 -1 -14 6 -12 15 5 23 28 10 28 -5 0 -13 -7 -16
-16z"/>
<path d="M3932 9310 c-13 -11 -22 -25 -20 -33 2 -8 14 0 31 20 32 36 25 43
-11 13z"/>
<path d="M3862 9234 c-7 -8 -8 -14 -3 -14 10 0 25 19 20 25 -2 1 -10 -3 -17
-11z"/>
<path d="M3750 9120 c0 -19 3 -21 12 -12 9 9 9 15 0 24 -9 9 -12 7 -12 -12z"/>
<path d="M3700 9075 c-7 -9 -11 -18 -8 -20 3 -3 11 1 18 10 7 9 11 18 8 20 -3
3 -11 -1 -18 -10z"/>
<path d="M3479 8823 c-28 -31 -39 -84 -14 -63 8 7 12 16 9 21 -3 5 6 20 20 33
14 13 26 26 26 30 0 14 -18 5 -41 -21z"/>
<path d="M2370 8283 c0 -4 5 -15 10 -23 8 -13 10 -13 10 2 0 9 -4 20 -10 23
-5 3 -10 3 -10 -2z"/>
<path d="M2997 8022 c-15 -15 -27 -34 -27 -42 0 -7 16 3 35 23 19 20 35 38 35
42 0 13 -18 3 -43 -23z"/>
<path d="M2294 8109 c-1 -20 2 -26 7 -17 11 16 12 48 2 48 -5 0 -8 -14 -9 -31z"/>
<path d="M2221 7854 c0 -11 3 -14 6 -6 3 7 2 16 -1 19 -3 4 -6 -2 -5 -13z"/>
<path d="M8970 7684 c58 -7 260 -9 260 -2 0 5 -64 7 -142 7 -79 -1 -132 -3
-118 -5z"/>
<path d="M9530 7570 c0 -8 5 -22 10 -30 9 -13 10 -13 10 0 0 8 -5 22 -10 30
-9 13 -10 13 -10 0z"/>
<path d="M8408 7603 c6 -2 18 -2 25 0 6 3 1 5 -13 5 -14 0 -19 -2 -12 -5z"/>
<path d="M8170 7540 c-13 -9 -13 -11 0 -20 8 -5 24 -9 35 -8 17 1 17 1 -2 5
-13 2 -23 8 -23 13 0 5 10 11 23 13 19 4 19 4 2 5 -11 1 -27 -3 -35 -8z"/>
<path d="M10648 7543 c6 -2 18 -2 25 0 6 3 1 5 -13 5 -14 0 -19 -2 -12 -5z"/>
<path d="M10541 7354 c0 -11 3 -14 6 -6 3 7 2 16 -1 19 -3 4 -6 -2 -5 -13z"/>
<path d="M11241 7454 c0 -11 3 -14 6 -6 3 7 2 16 -1 19 -3 4 -6 -2 -5 -13z"/>
<path d="M7730 7360 c-13 -8 -12 -10 3 -10 9 0 17 5 17 10 0 12 -1 12 -20 0z"/>
<path d="M7450 7205 c7 -8 22 -15 34 -15 20 1 20 2 -4 15 -33 19 -46 19 -30 0z"/>
<path d="M9622 7205 c0 -16 2 -22 5 -12 2 9 2 23 0 30 -3 6 -5 -1 -5 -18z"/>
<path d="M9298 7003 c12 -2 32 -2 45 0 12 2 2 4 -23 4 -25 0 -35 -2 -22 -4z"/>
<path d="M11296 7054 c-4 -15 -2 -32 3 -37 8 -8 11 0 11 26 0 44 -5 47 -14 11z"/>
<path d="M10612 6965 c0 -16 2 -22 5 -12 2 9 2 23 0 30 -3 6 -5 -1 -5 -18z"/>
<path d="M10680 6830 c0 -5 5 -10 10 -10 6 0 10 5 10 10 0 6 -4 10 -10 10 -5
0 -10 -4 -10 -10z"/>
<path d="M8778 6993 c7 -3 16 -2 19 1 4 3 -2 6 -13 5 -11 0 -14 -3 -6 -6z"/>
<path d="M8718 6983 c6 -2 18 -2 25 0 6 3 1 5 -13 5 -14 0 -19 -2 -12 -5z"/>
<path d="M8078 6763 c7 -3 16 -2 19 1 4 3 -2 6 -13 5 -11 0 -14 -3 -6 -6z"/>
<path d="M1982 6645 c0 -16 2 -22 5 -12 2 9 2 23 0 30 -3 6 -5 -1 -5 -18z"/>
<path d="M1972 6565 c0 -16 2 -22 5 -12 2 9 2 23 0 30 -3 6 -5 -1 -5 -18z"/>
<path d="M1970 6279 c0 -11 5 -17 10 -14 6 3 10 13 10 21 0 8 -4 14 -10 14 -5
0 -10 -9 -10 -21z"/>
<path d="M7928 6683 c7 -3 16 -2 19 1 4 3 -2 6 -13 5 -11 0 -14 -3 -6 -6z"/>
<path d="M10660 6630 c0 -5 5 -10 10 -10 6 0 10 5 10 10 0 6 -4 10 -10 10 -5
0 -10 -4 -10 -10z"/>
<path d="M7770 6600 c-8 -5 -12 -11 -9 -14 3 -3 14 1 25 9 21 16 8 20 -16 5z"/>
<path d="M10694 6340 c0 -69 1 -97 3 -62 2 34 2 90 0 125 -2 34 -3 6 -3 -63z"/>
<path d="M10660 5990 c0 -5 5 -10 10 -10 6 0 10 5 10 10 0 6 -4 10 -10 10 -5
0 -10 -4 -10 -10z"/>
<path d="M7360 6352 c0 -12 19 -26 26 -19 2 2 -2 10 -11 17 -9 8 -15 8 -15 2z"/>
<path d="M2657 5985 c3 -44 7 -82 9 -84 8 -9 2 125 -6 144 -5 12 -6 -12 -3
-60z"/>
<path d="M2026 5793 c10 -40 14 -41 14 -5 0 18 -5 32 -10 32 -6 0 -8 -11 -4
-27z"/>
<path d="M2732 5530 c0 -14 2 -19 5 -12 2 6 2 18 0 25 -3 6 -5 1 -5 -13z"/>
<path d="M2160 5310 c0 -5 5 -10 10 -10 6 0 10 5 10 10 0 6 -4 10 -10 10 -5 0
-10 -4 -10 -10z"/>
<path d="M2202 5044 c1 -17 -2 -28 -8 -27 -7 1 -9 -8 -6 -25 l5 -27 9 28 c6
15 14 27 20 27 14 0 5 43 -10 48 -10 3 -13 -4 -10 -24z"/>
<path d="M11212 5230 c0 -14 2 -19 5 -12 2 6 2 18 0 25 -3 6 -5 1 -5 -13z"/>
<path d="M2760 5150 c0 -5 5 -10 10 -10 6 0 10 5 10 10 0 6 -4 10 -10 10 -5 0
-10 -4 -10 -10z"/>
<path d="M2363 4534 c0 -17 2 -22 7 -13 5 6 6 18 3 26 -8 19 -10 16 -10 -13z"/>
<path d="M10830 4274 c0 -8 5 -12 10 -9 6 3 10 10 10 16 0 5 -4 9 -10 9 -5 0
-10 -7 -10 -16z"/>
<path d="M10576 3850 c-11 -28 -22 -40 -35 -40 -20 0 -51 -34 -51 -56 0 -7 7
-14 15 -18 10 -4 14 1 12 16 -1 14 6 26 19 32 28 15 47 36 62 69 14 33 15 37
3 37 -5 0 -16 -18 -25 -40z"/>
<path d="M10380 3567 c-14 -7 -26 -21 -28 -32 -3 -19 -2 -19 11 -2 8 9 19 17
25 17 5 0 12 7 16 15 7 18 7 18 -24 2z"/>
<path d="M9714 3773 c-27 -29 -29 -33 -10 -27 11 4 21 7 21 8 0 0 6 12 13 24
20 35 11 34 -24 -5z"/>
<path d="M2790 3748 c0 -10 4 -18 9 -18 5 0 11 -7 13 -16 2 -14 6 -12 23 6
l20 23 -22 -7 c-15 -5 -25 -2 -32 11 -10 17 -10 17 -11 1z"/>
<path d="M3761 3554 c0 -11 3 -14 6 -6 3 7 2 16 -1 19 -3 4 -6 -2 -5 -13z"/>
<path d="M3900 3450 c33 -26 52 -25 21 0 -13 11 -28 20 -35 20 -6 0 0 -9 14
-20z"/>
<path d="M3000 3472 c0 -5 7 -13 16 -16 10 -4 14 -1 12 6 -5 15 -28 23 -28 10z"/>
<path d="M9400 3441 c0 -10 19 -25 25 -20 1 2 -3 10 -11 17 -8 7 -14 8 -14 3z"/>
<path d="M9336 3381 c-3 -5 1 -11 9 -15 8 -3 15 -1 15 4 0 13 -18 22 -24 11z"/>
<path d="M10013 3135 c-9 -25 4 -29 17 -6 7 15 7 21 0 21 -6 0 -13 -7 -17 -15z"/>
<path d="M9930 3081 c0 -5 7 -11 14 -14 10 -4 13 -1 9 9 -6 15 -23 19 -23 5z"/>
<path d="M9190 3259 c0 -5 5 -7 10 -4 6 3 10 8 10 11 0 2 -4 4 -10 4 -5 0 -10
-5 -10 -11z"/>
<path d="M3311 3143 c0 -5 4 -17 9 -28 8 -18 9 -17 9 8 1 15 -3 27 -9 27 -5 0
-10 -3 -9 -7z"/>
<path d="M3481 2979 c17 -17 23 -19 30 -8 9 16 11 15 -24 23 l-28 7 22 -22z"/>
<path d="M9115 3200 c-3 -5 1 -10 9 -10 9 0 16 5 16 10 0 6 -4 10 -9 10 -6 0
-13 -4 -16 -10z"/>
<path d="M8915 3050 c-3 -5 1 -10 9 -10 9 0 16 5 16 10 0 6 -4 10 -9 10 -6 0
-13 -4 -16 -10z"/>
<path d="M4630 2930 c0 -5 5 -10 11 -10 5 0 7 5 4 10 -3 6 -8 10 -11 10 -2 0
-4 -4 -4 -10z"/>
<path d="M9703 2833 c-15 -5 -17 -23 -4 -23 5 0 11 7 15 15 3 8 4 15 3 14 -1
0 -8 -3 -14 -6z"/>
<path d="M3917 2609 c7 -7 15 -10 18 -7 3 3 -2 9 -12 12 -14 6 -15 5 -6 -5z"/>
<path d="M9502 2679 c-18 -5 -30 -14 -27 -19 6 -9 65 14 65 25 0 3 -1 5 -2 4
-2 0 -18 -5 -36 -10z"/>
<path d="M9370 2580 c0 -5 7 -10 15 -10 8 0 15 5 15 10 0 6 -7 10 -15 10 -8 0
-15 -4 -15 -10z"/>
<path d="M5145 2643 c-20 -15 -19 -15 5 -9 14 3 29 6 33 6 5 0 5 5 2 10 -8 14
-16 12 -40 -7z"/>
<path d="M5280 2610 c0 -5 5 -10 11 -10 5 0 7 5 4 10 -3 6 -8 10 -11 10 -2 0
-4 -4 -4 -10z"/>
<path d="M5344 2575 c11 -8 31 -15 45 -14 26 1 26 1 -4 14 -42 19 -66 19 -41
0z"/>
<path d="M5428 2553 c6 -2 18 -2 25 0 6 3 1 5 -13 5 -14 0 -19 -2 -12 -5z"/>
<path d="M5718 2473 c7 -3 16 -2 19 1 4 3 -2 6 -13 5 -11 0 -14 -3 -6 -6z"/>
<path d="M4488 2283 c7 -3 16 -2 19 1 4 3 -2 6 -13 5 -11 0 -14 -3 -6 -6z"/>
<path d="M8850 2310 c0 -5 5 -10 10 -10 6 0 10 5 10 10 0 6 -4 10 -10 10 -5 0
-10 -4 -10 -10z"/>
<path d="M5238 1933 c6 -2 18 -2 25 0 6 3 1 5 -13 5 -14 0 -19 -2 -12 -5z"/>
<path d="M8353 2043 c-13 -2 -23 -9 -23 -14 0 -12 2 -12 41 6 33 14 27 17 -18
8z"/>
<path d="M7848 1873 c7 -3 16 -2 19 1 4 3 -2 6 -13 5 -11 0 -14 -3 -6 -6z"/>
<path d="M6368 1713 c6 -2 18 -2 25 0 6 3 1 5 -13 5 -14 0 -19 -2 -12 -5z"/>
</g>
</svg>
